<?xml version="1.0" encoding="UTF-8" standalone="no"?>
<svg
   width="153.36436mm"
   height="52.069206mm"
   viewBox="0 0 153.36437 52.069208"
   version="1.1"
   id="svg8"
   inkscape:version="1.1.2 (b8e25be833, 2022-02-05)"
   sodipodi:docname="logo2.svg"
   inkscape:export-filename="C:\dev\just-the-docs\logo2.png"
   inkscape:export-xdpi="112.16"
   inkscape:export-ydpi="112.16"
   xmlns:inkscape="http://www.inkscape.org/namespaces/inkscape"
   xmlns:sodipodi="http://sodipodi.sourceforge.net/DTD/sodipodi-0.dtd"
   xmlns="http://www.w3.org/2000/svg"
   xmlns:svg="http://www.w3.org/2000/svg"
   xmlns:rdf="http://www.w3.org/1999/02/22-rdf-syntax-ns#"
   xmlns:cc="http://creativecommons.org/ns#"
   xmlns:dc="http://purl.org/dc/elements/1.1/">
  <defs
     id="defs2">
    <filter
       style="color-interpolation-filters:sRGB"
       inkscape:label="Drop Shadow"
       id="filter1134">
      <feFlood
         flood-opacity="0.498039"
         flood-color="rgb(19,19,19)"
         result="flood"
         id="feFlood1124" />
      <feComposite
         in="flood"
         in2="SourceGraphic"
         operator="in"
         result="composite1"
         id="feComposite1126" />
      <feGaussianBlur
         in="composite1"
         stdDeviation="12"
         result="blur"
         id="feGaussianBlur1128" />
      <feOffset
         dx="0"
         dy="0"
         result="offset"
         id="feOffset1130" />
      <feComposite
         in="SourceGraphic"
         in2="offset"
         operator="over"
         result="composite2"
         id="feComposite1132" />
    </filter>
    <filter
       style="color-interpolation-filters:sRGB"
       inkscape:label="Drop Shadow"
       id="filter1048"
       x="-0.099447146"
       y="-0.099447146"
       width="1.2176579"
       height="1.2176579">
      <feFlood
         flood-opacity="0.796078"
         flood-color="rgb(0,0,0)"
         result="flood"
         id="feFlood1038" />
      <feComposite
         in="flood"
         in2="SourceGraphic"
         operator="in"
         result="composite1"
         id="feComposite1040" />
      <feGaussianBlur
         in="composite1"
         stdDeviation="6"
         result="blur"
         id="feGaussianBlur1042" />
      <feOffset
         dx="3"
         dy="3"
         result="offset"
         id="feOffset1044" />
      <feComposite
         in="SourceGraphic"
         in2="offset"
         operator="over"
         result="composite2"
         id="feComposite1046" />
    </filter>
    <filter
       style="color-interpolation-filters:sRGB"
       inkscape:label="Drop Shadow"
       id="filter1228"
       x="-0.011700012"
       y="-0.042829446"
       width="1.028275"
       height="1.1035045">
      <feFlood
         flood-opacity="0.498039"
         flood-color="rgb(86,86,86)"
         result="flood"
         id="feFlood1218" />
      <feComposite
         in="flood"
         in2="SourceGraphic"
         operator="in"
         result="composite1"
         id="feComposite1220" />
      <feGaussianBlur
         in="composite1"
         stdDeviation="0.5"
         result="blur"
         id="feGaussianBlur1222" />
      <feOffset
         dx="0.5"
         dy="0.5"
         result="offset"
         id="feOffset1224" />
      <feComposite
         in="SourceGraphic"
         in2="offset"
         operator="over"
         result="composite2"
         id="feComposite1226" />
    </filter>
  </defs>
  <sodipodi:namedview
     id="base"
     pagecolor="#ffffff"
     bordercolor="#666666"
     borderopacity="1.0"
     inkscape:pageopacity="0.0"
     inkscape:pageshadow="2"
     inkscape:zoom="0.98994949"
     inkscape:cx="226.27417"
     inkscape:cy="81.31728"
     inkscape:document-units="mm"
     inkscape:current-layer="layer1"
     inkscape:document-rotation="0"
     showgrid="false"
     inkscape:window-width="1920"
     inkscape:window-height="999"
     inkscape:window-x="-9"
     inkscape:window-y="-9"
     inkscape:window-maximized="1"
     inkscape:pagecheckerboard="0" />
  <metadata
     id="metadata5">
    <rdf:RDF>
      <cc:Work
         rdf:about="">
        <dc:format>image/svg+xml</dc:format>
        <dc:type
           rdf:resource="http://purl.org/dc/dcmitype/StillImage" />
      </cc:Work>
    </rdf:RDF>
  </metadata>
  <g
     inkscape:label="Layer 1"
     inkscape:groupmode="layer"
     id="layer1"
     transform="translate(-20.070279,-25.752436)">
    <g
       aria-label="geodesk"
       id="text866"
       style="font-style:normal;font-variant:normal;font-weight:normal;font-stretch:normal;font-size:29.8065px;line-height:1.25;font-family:Mukta;-inkscape-font-specification:'Mukta, Normal';font-variant-ligatures:normal;font-variant-caps:normal;font-variant-numeric:normal;font-variant-east-asian:normal;fill:#262626;fill-opacity:1;stroke-width:0.465728;filter:url(#filter1228)"
       transform="matrix(0.93136278,0,0,0.93136278,9.3124489,0.74141713)">
      <path
         d="m 70.343679,56.890324 q 0,-1.162453 0.417291,-2.056648 0.417291,-0.924002 1.162453,-1.549938 0.774969,-0.625937 1.818197,-0.924002 1.043227,-0.327871 2.265294,-0.327871 0.447097,0 0.864388,0.05961 0.417291,0.05961 0.834582,0.149032 h 6.050719 v 1.937423 h -0.924001 l -2.38452,-0.327872 q 0.566323,0.59613 0.864388,1.371099 0.327872,0.774969 0.327872,1.639358 0,1.162453 -0.417291,2.086455 -0.417291,0.894195 -1.162454,1.520131 -0.745162,0.625937 -1.788389,0.953808 -1.043228,0.298065 -2.265294,0.298065 -0.924002,0 -1.609551,-0.119226 -0.68555,0.238452 -0.953808,0.625937 -0.268259,0.357678 -0.268259,0.774969 0,0.685549 0.447098,0.924001 0.476904,0.238452 1.251873,0.238452 h 3.696006 q 2.324906,0 3.546973,1.073034 1.251873,1.043228 1.251873,2.861424 0,1.162454 -0.506711,2.086455 -0.50671,0.924002 -1.460518,1.579745 -0.924002,0.655743 -2.265294,0.983614 -1.341292,0.357678 -3.010456,0.357678 -3.040263,0 -4.85846,-1.10284 -1.78839,-1.073034 -1.78839,-3.189296 0,-1.10284 0.68555,-1.848003 0.715356,-0.745162 1.848003,-1.132647 -0.59613,-0.417291 -0.894195,-0.864388 -0.298065,-0.476904 -0.298065,-1.251873 0,-0.924002 0.536517,-1.579745 0.566323,-0.655743 1.520131,-1.043227 -1.19226,-0.536517 -1.877809,-1.549938 -0.655743,-1.043228 -0.655743,-2.652779 z m 3.189295,9.359241 q -1.520131,0.68555 -1.520131,2.146068 0,2.622972 4.232523,2.622972 1.251873,0 2.116261,-0.238452 0.864388,-0.238452 1.400905,-0.625936 0.536517,-0.387485 0.774969,-0.864389 0.268259,-0.476904 0.268259,-0.983614 0,-1.251873 -0.864389,-1.669164 -0.834582,-0.387485 -2.116261,-0.387485 z m 5.454589,-9.299628 q 0,-1.579744 -0.834581,-2.324907 -0.804776,-0.745162 -2.146068,-0.745162 -1.341293,0 -2.175875,0.745162 -0.804775,0.745163 -0.804775,2.205681 0,1.549938 0.804775,2.295101 0.834582,0.715356 2.175875,0.715356 1.341292,0 2.146068,-0.715356 0.834581,-0.715356 0.834581,-2.175875 z"
         style="font-style:normal;font-variant:normal;font-weight:normal;font-stretch:normal;font-size:29.8065px;font-family:Mukta;-inkscape-font-specification:'Mukta, Normal';font-variant-ligatures:normal;font-variant-caps:normal;font-variant-numeric:normal;font-variant-east-asian:normal;fill:#262626;fill-opacity:1;stroke-width:0.465728"
         id="path44" />
      <path
         d="m 98.004051,59.543103 h -10.04479 v 0.119226 q 0,2.324907 1.251873,3.57678 1.281679,1.251873 3.457554,1.251873 1.132647,0 1.997035,-0.178839 0.894195,-0.178839 1.937423,-0.59613 l 0.536517,1.937422 q -0.864389,0.387485 -2.056649,0.625937 -1.162453,0.238452 -2.503746,0.238452 -1.520131,0 -2.861424,-0.417291 -1.311486,-0.417291 -2.324907,-1.28168 -1.013421,-0.894195 -1.609551,-2.265294 -0.566323,-1.371099 -0.566323,-3.278715 0,-1.639357 0.476904,-2.98065 0.50671,-1.341292 1.400905,-2.265294 0.894195,-0.953808 2.146068,-1.460518 1.28168,-0.536517 2.861424,-0.536517 1.341293,0 2.414327,0.447097 1.10284,0.447098 1.877809,1.251873 0.774969,0.804776 1.19226,1.937423 0.417291,1.132647 0.417291,2.503746 z m -2.712391,-1.87781 q 0,-0.774969 -0.208646,-1.430712 -0.178839,-0.685549 -0.59613,-1.19226 -0.387484,-0.50671 -1.013421,-0.804775 -0.625936,-0.298065 -1.520131,-0.298065 -1.639358,0 -2.682585,1.043227 -1.013421,1.043228 -1.251873,2.742198 z"
         style="font-style:normal;font-variant:normal;font-weight:normal;font-stretch:normal;font-size:29.8065px;font-family:Mukta;-inkscape-font-specification:'Mukta, Normal';font-variant-ligatures:normal;font-variant-caps:normal;font-variant-numeric:normal;font-variant-east-asian:normal;fill:#262626;fill-opacity:1;stroke-width:0.465728"
         id="path46" />
      <path
         d="m 113.95052,59.096005 q 0,1.758584 -0.53652,3.159489 -0.53651,1.371099 -1.49032,2.324907 -0.924,0.953808 -2.17588,1.460519 -1.25187,0.476904 -2.71239,0.476904 -1.46052,0 -2.71239,-0.447098 -1.22207,-0.476904 -2.14607,-1.371099 -0.89419,-0.924001 -1.43071,-2.235487 -0.50671,-1.341293 -0.50671,-3.07007 0,-1.758583 0.53652,-3.129682 0.53651,-1.371099 1.46051,-2.295101 0.95381,-0.953808 2.20569,-1.430712 1.25187,-0.50671 2.71239,-0.50671 1.46052,0 2.68258,0.447097 1.25188,0.447098 2.14607,1.341293 0.924,0.894195 1.43071,2.235487 0.53652,1.311486 0.53652,3.040263 z m -2.7422,0.149033 q 0,-1.400906 -0.35768,-2.38452 -0.35767,-0.983615 -0.9538,-1.609551 -0.56633,-0.625937 -1.31149,-0.894195 -0.74516,-0.298065 -1.52013,-0.298065 -0.77497,0 -1.52013,0.238452 -0.74517,0.238452 -1.31149,0.834582 -0.56632,0.59613 -0.924,1.609551 -0.32787,0.983614 -0.32787,2.503746 0,1.400905 0.35768,2.414326 0.35767,0.983615 0.924,1.609551 0.59613,0.625937 1.34129,0.924002 0.74516,0.298065 1.52013,0.298065 0.77497,0 1.52013,-0.238452 0.74516,-0.268259 1.31149,-0.864389 0.56632,-0.625936 0.89419,-1.609551 0.35768,-1.013421 0.35768,-2.533552 z"
         style="font-style:normal;font-variant:normal;font-weight:normal;font-stretch:normal;font-size:29.8065px;font-family:Mukta;-inkscape-font-specification:'Mukta, Normal';font-variant-ligatures:normal;font-variant-caps:normal;font-variant-numeric:normal;font-variant-east-asian:normal;fill:#262626;fill-opacity:1;stroke-width:0.465728"
         id="path48" />
      <path
         d="m 126.43939,45.08695 h 2.62297 v 21.162615 h -2.20568 l -0.32787,-1.549938 h -0.0894 q -0.924,0.953808 -1.87781,1.400906 -0.924,0.417291 -2.35471,0.417291 -1.13265,0 -2.20569,-0.447098 -1.04322,-0.447097 -1.8778,-1.341292 -0.83459,-0.894195 -1.3413,-2.235488 -0.50671,-1.371099 -0.50671,-3.219102 0,-1.639357 0.41729,-2.98065 0.4471,-1.341292 1.25188,-2.2951 0.80477,-0.953808 1.96723,-1.460519 1.16245,-0.50671 2.65277,-0.50671 1.10284,0 2.08646,0.357678 1.01342,0.327871 1.78839,1.013421 z m 0,10.521695 q -1.40091,-1.579745 -3.30852,-1.579745 -0.80478,0 -1.57975,0.298065 -0.74516,0.268259 -1.34129,0.894195 -0.56632,0.625937 -0.924,1.609551 -0.35768,0.983615 -0.35768,2.354714 0,1.430712 0.32787,2.444133 0.32787,0.983614 0.86439,1.639357 0.56632,0.625937 1.25187,0.924002 0.71536,0.298065 1.43072,0.298065 2.23548,0 3.63639,-1.937423 z"
         style="font-style:normal;font-variant:normal;font-weight:normal;font-stretch:normal;font-size:29.8065px;font-family:Mukta;-inkscape-font-specification:'Mukta, Normal';font-variant-ligatures:normal;font-variant-caps:normal;font-variant-numeric:normal;font-variant-east-asian:normal;fill:#262626;fill-opacity:1;stroke-width:0.465728"
         id="path50" />
      <path
         d="m 145.03862,59.543103 h -10.04479 v 0.119226 q 0,2.324907 1.25187,3.57678 1.28168,1.251873 3.45756,1.251873 1.13265,0 1.99703,-0.178839 0.8942,-0.178839 1.93743,-0.59613 l 0.53651,1.937422 q -0.86439,0.387485 -2.05665,0.625937 -1.16245,0.238452 -2.50374,0.238452 -1.52013,0 -2.86143,-0.417291 -1.31148,-0.417291 -2.3249,-1.28168 -1.01342,-0.894195 -1.60955,-2.265294 -0.56633,-1.371099 -0.56633,-3.278715 0,-1.639357 0.47691,-2.98065 0.50671,-1.341292 1.4009,-2.265294 0.8942,-0.953808 2.14607,-1.460518 1.28168,-0.536517 2.86142,-0.536517 1.3413,0 2.41433,0.447097 1.10284,0.447098 1.87781,1.251873 0.77497,0.804776 1.19226,1.937423 0.41729,1.132647 0.41729,2.503746 z m -2.71239,-1.87781 q 0,-0.774969 -0.20865,-1.430712 -0.17883,-0.685549 -0.59613,-1.19226 -0.38748,-0.50671 -1.01342,-0.804775 -0.62593,-0.298065 -1.52013,-0.298065 -1.63936,0 -2.68258,1.043227 -1.01342,1.043228 -1.25188,2.742198 z"
         style="font-style:normal;font-variant:normal;font-weight:normal;font-stretch:normal;font-size:29.8065px;font-family:Mukta;-inkscape-font-specification:'Mukta, Normal';font-variant-ligatures:normal;font-variant-caps:normal;font-variant-numeric:normal;font-variant-east-asian:normal;fill:#262626;fill-opacity:1;stroke-width:0.465728"
         id="path52" />
      <path
         d="m 156.00741,54.863482 q -0.98362,-0.476904 -1.78839,-0.655743 -0.80478,-0.178839 -1.60955,-0.178839 -1.43072,0 -2.11627,0.536517 -0.68555,0.506711 -0.68555,1.371099 0,0.625937 0.47691,1.102841 0.4769,0.447097 1.99703,0.894195 l 0.8942,0.268258 q 1.99703,0.59613 3.01046,1.549938 1.04322,0.924002 1.04322,2.533553 0,1.907616 -1.43071,3.070069 -1.4009,1.162454 -3.93446,1.162454 -1.34129,0 -2.59316,-0.238452 -1.22207,-0.238452 -2.11626,-0.655743 l 0.62593,-2.056649 q 0.86439,0.417291 1.87781,0.68555 1.01342,0.238452 2.05665,0.238452 1.34129,0 2.11626,-0.476904 0.80478,-0.476904 0.80478,-1.579745 0,-0.953808 -0.68555,-1.341292 -0.68555,-0.417291 -1.96723,-0.804776 l -0.924,-0.298065 q -1.93742,-0.625936 -2.89123,-1.549938 -0.924,-0.953808 -0.924,-2.444133 0,-0.894195 0.38748,-1.639357 0.38748,-0.745163 1.04323,-1.251873 0.68555,-0.506711 1.60955,-0.774969 0.924,-0.298065 2.02684,-0.298065 1.04323,0 2.14607,0.208645 1.13265,0.178839 2.14607,0.625937 z"
         style="font-style:normal;font-variant:normal;font-weight:normal;font-stretch:normal;font-size:29.8065px;font-family:Mukta;-inkscape-font-specification:'Mukta, Normal';font-variant-ligatures:normal;font-variant-caps:normal;font-variant-numeric:normal;font-variant-east-asian:normal;fill:#262626;fill-opacity:1;stroke-width:0.465728"
         id="path54" />
      <path
         d="m 162.8927,61.122847 v 5.126718 h -2.59317 V 45.08695 h 2.59317 v 13.174473 l 5.63342,-6.020913 h 3.24891 l -5.75265,5.901687 6.02091,8.107368 h -3.09987 l -4.64982,-6.527623 z"
         style="font-style:normal;font-variant:normal;font-weight:normal;font-stretch:normal;font-size:29.8065px;font-family:Mukta;-inkscape-font-specification:'Mukta, Normal';font-variant-ligatures:normal;font-variant-caps:normal;font-variant-numeric:normal;font-variant-east-asian:normal;fill:#262626;fill-opacity:1;stroke-width:0.465728"
         id="path56" />
    </g>
    <g
       id="g1202"
       transform="matrix(0.24931275,0,0,0.24931275,18.018381,27.192886)">
      <circle
         style="fill:#33a1f6;fill-opacity:1;stroke:#fdfeff;stroke-width:3;stroke-miterlimit:4;stroke-dasharray:none;stroke-opacity:1"
         id="path849"
         cx="102.99851"
         cy="120.7634"
         r="79.941963" />
      <path
         style="fill:#62b426;fill-opacity:1;stroke:#ffffff;stroke-width:4.7625;stroke-linecap:butt;stroke-linejoin:miter;stroke-miterlimit:4;stroke-dasharray:none;stroke-opacity:1"
         d="M 56.794775,65.080128 C 52.068984,72.656033 49.002266,81.873104 46.772167,92.942979 L 71.093694,101.69605 96.21703,79.245414 87.931674,56.661139 C 77.013955,57.132873 66.64343,59.975781 56.794775,65.080128 Z"
         id="path865"
         sodipodi:nodetypes="cccccc" />
      <path
         style="fill:none;stroke:#ffffff;stroke-width:4.7625;stroke-linecap:butt;stroke-linejoin:miter;stroke-miterlimit:4;stroke-dasharray:none;stroke-opacity:1"
         d="m 56.794775,65.080128 -5.34539,-5.211755"
         id="path871" />
      <path
         style="fill:none;stroke:#ffffff;stroke-width:4.7625;stroke-linecap:butt;stroke-linejoin:miter;stroke-miterlimit:4;stroke-dasharray:none;stroke-opacity:1"
         d="M 87.931674,56.661139 C 95.237043,49.599511 102.54241,44.834651 109.84778,41.293142"
         id="path873"
         sodipodi:nodetypes="cc" />
      <path
         style="fill:#62b426;fill-opacity:1;stroke:#ffffff;stroke-width:4.7625;stroke-linecap:butt;stroke-linejoin:miter;stroke-miterlimit:4;stroke-dasharray:none;stroke-opacity:1"
         d="m 129.75935,86.461692 c 3.39614,9.741332 6.21191,19.611158 6.81538,30.468728 9.39898,4.51594 18.79795,7.94953 28.19693,6.81537 l 6.41447,-24.9897 -18.97614,-24.588797 z"
         id="path875"
         sodipodi:nodetypes="cccccc" />
      <path
         style="fill:#62b426;fill-opacity:1;stroke:#ffffff;stroke-width:4.7625;stroke-linecap:butt;stroke-linejoin:miter;stroke-miterlimit:4;stroke-dasharray:none;stroke-opacity:1"
         d="m 81.249934,134.03567 -17.372517,22.85154 c 5.636381,9.10206 11.598225,17.79728 20.045214,23.38608 6.805737,-0.36607 13.871681,-0.87091 31.136899,-6.81537 l -1.33635,-28.4642 z"
         id="path877"
         sodipodi:nodetypes="cccccc" />
      <path
         style="fill:#62b426;fill-opacity:1;stroke:#ffffff;stroke-width:4.7625;stroke-linecap:butt;stroke-linejoin:miter;stroke-miterlimit:4;stroke-dasharray:none;stroke-opacity:1"
         d="m 142.32102,176.26425 c 0.5584,4.71646 -0.29836,9.7474 -2.00452,14.9671 l 13.36348,-8.68626 9.08716,-9.48807 7.21628,-8.95353 5.07812,-9.62171 c -3.02906,-0.71265 -6.05811,-0.82902 -9.08717,-0.53453 z"
         id="path883"
         sodipodi:nodetypes="cccccccc" />
      <path
         style="fill:#6bc52a;fill-opacity:1;stroke:#ffffff;stroke-width:4.7625;stroke-linecap:butt;stroke-linejoin:miter;stroke-miterlimit:4;stroke-dasharray:none;stroke-opacity:1"
         d="m 24.054257,112.38684 7.349911,1.46998 c 1.092449,11.09168 2.1893,22.18337 8.151722,33.27505 l -3.095166,7.39527 -1.849322,7.97273 -5.879928,-11.49259 -3.875408,-13.22984 -1.469983,-11.62622 z"
         id="path889"
         sodipodi:nodetypes="ccccccccc" />
      <path
         style="fill:none;stroke:#ffffff;stroke-width:5.29167;stroke-linecap:butt;stroke-linejoin:miter;stroke-miterlimit:4;stroke-dasharray:none;stroke-opacity:1"
         d="m 39.55589,147.13187 c 7.613063,4.98117 15.309521,9.67047 24.321527,9.75534"
         id="path891"
         sodipodi:nodetypes="cc" />
      <path
         style="fill:none;stroke:#ffffff;stroke-width:3.175;stroke-linecap:butt;stroke-linejoin:miter;stroke-miterlimit:4;stroke-dasharray:none;stroke-opacity:1"
         d="M 31.404168,113.85682 46.772167,92.942979"
         id="path893"
         sodipodi:nodetypes="cc" />
      <g
         id="g1628"
         style="stroke-width:4.7625;stroke-miterlimit:4;stroke-dasharray:none">
        <path
           style="fill:none;stroke:#ffffff;stroke-width:4.7625;stroke-linecap:butt;stroke-linejoin:miter;stroke-miterlimit:4;stroke-dasharray:none;stroke-opacity:1"
           d="m 71.093694,101.69605 c 0,0 1.14536,10.78387 3.135452,17.12074 1.395321,4.443 7.020786,15.21888 7.020786,15.21888"
           id="path879"
           sodipodi:nodetypes="csc" />
        <path
           style="fill:none;stroke:#ffffff;stroke-width:4.7625;stroke-linecap:butt;stroke-linejoin:miter;stroke-miterlimit:4;stroke-dasharray:none;stroke-opacity:1"
           d="m 136.57473,116.93042 c -7.0378,9.77874 -12.17431,20.10885 -22.85155,28.0633"
           id="path881"
           sodipodi:nodetypes="cc" />
        <path
           style="fill:none;stroke:#ffffff;stroke-width:4.7625;stroke-linecap:butt;stroke-linejoin:miter;stroke-miterlimit:4;stroke-dasharray:none;stroke-opacity:1"
           d="m 115.05953,173.45792 c 9.32868,2.38457 18.63093,4.61054 27.26149,2.80633 v 0"
           id="path885"
           sodipodi:nodetypes="ccc" />
        <path
           style="fill:none;stroke:#ffffff;stroke-width:4.7625;stroke-linecap:butt;stroke-linejoin:miter;stroke-miterlimit:4;stroke-dasharray:none;stroke-opacity:1"
           d="m 165.97437,153.94725 -1.20271,-30.20146"
           id="path887" />
        <path
           style="fill:none;stroke:#ffffff;stroke-width:4.7625;stroke-linecap:butt;stroke-linejoin:miter;stroke-miterlimit:4;stroke-dasharray:none;stroke-opacity:1"
           d="m 83.922631,180.27329 c -2.315899,7.1713 -2.938041,12.64884 -2.405425,16.97162"
           id="path895"
           sodipodi:nodetypes="cc" />
        <path
           style="fill:none;stroke:#ffffff;stroke-width:4.7625;stroke-linecap:butt;stroke-linejoin:miter;stroke-miterlimit:4;stroke-dasharray:none;stroke-opacity:1"
           d="m 96.21703,79.245414 c 11.18077,0.01523 22.36155,1.678584 33.54232,7.216278"
           id="path897"
           sodipodi:nodetypes="cc" />
        <path
           style="fill:none;stroke:#ffffff;stroke-width:4.7625;stroke-linecap:butt;stroke-linejoin:miter;stroke-miterlimit:4;stroke-dasharray:none;stroke-opacity:1"
           d="M 152.20999,74.167293 C 150.93956,66.553421 147.52295,59.246148 143.791,51.983922"
           id="path899"
           sodipodi:nodetypes="cc" />
      </g>
      <path
         style="fill:none;stroke:#ffffff;stroke-width:3.175;stroke-linecap:butt;stroke-linejoin:miter;stroke-miterlimit:4;stroke-dasharray:none;stroke-opacity:1"
         d="m 171.18613,98.756088 8.41899,-0.400902"
         id="path901" />
      <ellipse
         style="fill:#ffffff;fill-opacity:0.191549;stroke:none;stroke-width:1.36154;stroke-miterlimit:4;stroke-dasharray:none;stroke-opacity:1"
         id="path930"
         ry="30.994068"
         rx="38.742577"
         cy="75.217232"
         cx="72.382416" />
      <path
         id="path849-5"
         style="fill:#ffffff;fill-opacity:0.192157;stroke:none;stroke-width:3;stroke-miterlimit:4;stroke-dasharray:none;stroke-opacity:1"
         d="M 103.40239,41.7064 A 79.941961,79.941961 0 0 0 24.054257,112.38684 65.389891,52.160736 0 0 0 71.652387,128.82976 65.389891,52.160736 0 0 0 137.04219,76.669123 65.389891,52.160736 0 0 0 122.70508,44.078865 79.941961,79.941961 0 0 0 103.40239,41.7064 Z" />
    </g>
  </g>
</svg>
