<?xml version="1.0" standalone="no"?>
<!DOCTYPE svg PUBLIC "-//W3C//DTD SVG 20010904//EN"
 "http://www.w3.org/TR/2001/REC-SVG-20010904/DTD/svg10.dtd">
<svg version="1.0" xmlns="http://www.w3.org/2000/svg"
 width="700.000000pt" height="700.000000pt" viewBox="0 0 700.000000 700.000000"
 preserveAspectRatio="xMidYMid meet">
<metadata>
Created by potrace 1.14, written by Peter Selinger 2001-2017
</metadata>
<g transform="translate(0.000000,700.000000) scale(0.100000,-0.100000)"
fill="#000000" stroke="none">
<path d="M3278 6995 c-1 -1 -42 -5 -89 -9 -47 -4 -95 -8 -106 -10 -11 -3 -44
-7 -74 -11 -102 -12 -217 -34 -344 -67 -44 -11 -89 -22 -101 -24 -91 -17 -415
-140 -579 -220 -180 -87 -448 -247 -555 -331 -8 -6 -51 -40 -95 -74 -342 -266
-650 -623 -875 -1014 -47 -81 -170 -327 -170 -339 0 -3 -11 -29 -24 -58 -43
-96 -112 -298 -142 -413 -4 -16 -8 -34 -10 -40 -5 -16 -25 -98 -30 -120 -39
-194 -47 -242 -60 -350 -26 -230 -26 -667 1 -826 2 -13 6 -46 9 -74 9 -78 22
-152 51 -285 24 -111 97 -360 115 -392 6 -10 10 -22 10 -28 0 -36 143 -353
222 -495 100 -177 142 -250 149 -255 4 -3 40 -50 79 -105 190 -262 409 -491
670 -700 92 -74 370 -265 386 -265 4 0 15 -6 23 -14 29 -26 335 -175 471 -229
114 -46 338 -120 398 -132 9 -2 55 -12 102 -24 109 -26 200 -43 299 -57 25 -3
57 -8 71 -10 163 -25 682 -25 841 1 13 2 47 7 74 10 71 10 87 13 115 18 14 3
43 8 65 12 22 4 76 16 120 27 44 10 87 21 96 23 224 51 645 224 853 350 32 19
62 35 67 35 5 0 9 5 9 10 0 6 5 10 10 10 15 0 220 141 330 227 152 118 324
280 450 422 36 41 70 79 76 85 6 6 48 61 94 121 150 197 277 405 383 628 26
53 47 99 47 102 0 2 11 28 24 57 57 127 151 421 182 573 17 81 54 301 59 350
4 33 9 71 11 85 9 46 11 524 4 605 -15 153 -21 210 -25 225 -2 8 -7 35 -10 60
-17 129 -80 384 -136 552 -348 1036 -1168 1857 -2204 2206 -168 57 -420 119
-555 137 -19 3 -46 7 -60 10 -13 2 -52 7 -86 11 -33 3 -74 8 -90 10 -33 5
-540 14 -546 9z"/>
</g>
</svg>
