<?xml version="1.0" encoding="UTF-8" standalone="no"?>
<svg
   xmlns:dc="http://purl.org/dc/elements/1.1/"
   xmlns:cc="http://creativecommons.org/ns#"
   xmlns:rdf="http://www.w3.org/1999/02/22-rdf-syntax-ns#"
   xmlns:svg="http://www.w3.org/2000/svg"
   xmlns="http://www.w3.org/2000/svg"
   xmlns:sodipodi="http://sodipodi.sourceforge.net/DTD/sodipodi-0.dtd"
   xmlns:inkscape="http://www.inkscape.org/namespaces/inkscape"
   width="513.18335mm"
   height="512.9104mm"
   viewBox="0 0 513.18335 512.9104"
   version="1.1"
   id="svg863"
   inkscape:version="1.0.2-2 (e86c870879, 2021-01-15)"
   sodipodi:docname="mercator-distortion.svg"
   inkscape:export-filename="C:\dev\deseo2\core\site\mercator-distortion.png"
   inkscape:export-xdpi="23.76"
   inkscape:export-ydpi="23.76">
  <defs
     id="defs857">
    <filter
       style="color-interpolation-filters:sRGB"
       inkscape:label="Drop Shadow"
       id="filter2122">
      <feFlood
         flood-opacity="1"
         flood-color="rgb(0,0,0)"
         result="flood"
         id="feFlood2112" />
      <feComposite
         in="flood"
         in2="SourceGraphic"
         operator="in"
         result="composite1"
         id="feComposite2114" />
      <feGaussianBlur
         in="composite1"
         stdDeviation="10"
         result="blur"
         id="feGaussianBlur2116" />
      <feOffset
         dx="0"
         dy="0"
         result="offset"
         id="feOffset2118" />
      <feComposite
         in="SourceGraphic"
         in2="offset"
         operator="over"
         result="composite2"
         id="feComposite2120" />
    </filter>
    <filter
       style="color-interpolation-filters:sRGB"
       inkscape:label="Drop Shadow"
       id="filter2110">
      <feFlood
         flood-opacity="1"
         flood-color="rgb(0,0,0)"
         result="flood"
         id="feFlood2100" />
      <feComposite
         in="flood"
         in2="SourceGraphic"
         operator="in"
         result="composite1"
         id="feComposite2102" />
      <feGaussianBlur
         in="composite1"
         stdDeviation="10"
         result="blur"
         id="feGaussianBlur2104" />
      <feOffset
         dx="0"
         dy="0"
         result="offset"
         id="feOffset2106" />
      <feComposite
         in="SourceGraphic"
         in2="offset"
         operator="over"
         result="composite2"
         id="feComposite2108" />
    </filter>
    <filter
       style="color-interpolation-filters:sRGB"
       inkscape:label="Drop Shadow"
       id="filter2098">
      <feFlood
         flood-opacity="1"
         flood-color="rgb(0,0,0)"
         result="flood"
         id="feFlood2088" />
      <feComposite
         in="flood"
         in2="SourceGraphic"
         operator="in"
         result="composite1"
         id="feComposite2090" />
      <feGaussianBlur
         in="composite1"
         stdDeviation="10"
         result="blur"
         id="feGaussianBlur2092" />
      <feOffset
         dx="0"
         dy="0"
         result="offset"
         id="feOffset2094" />
      <feComposite
         in="SourceGraphic"
         in2="offset"
         operator="over"
         result="composite2"
         id="feComposite2096" />
    </filter>
    <filter
       style="color-interpolation-filters:sRGB"
       inkscape:label="Drop Shadow"
       id="filter2086">
      <feFlood
         flood-opacity="1"
         flood-color="rgb(0,0,0)"
         result="flood"
         id="feFlood2076" />
      <feComposite
         in="flood"
         in2="SourceGraphic"
         operator="in"
         result="composite1"
         id="feComposite2078" />
      <feGaussianBlur
         in="composite1"
         stdDeviation="10"
         result="blur"
         id="feGaussianBlur2080" />
      <feOffset
         dx="0"
         dy="0"
         result="offset"
         id="feOffset2082" />
      <feComposite
         in="SourceGraphic"
         in2="offset"
         operator="over"
         result="composite2"
         id="feComposite2084" />
    </filter>
  </defs>
  <sodipodi:namedview
     id="base"
     pagecolor="#ffffff"
     bordercolor="#666666"
     borderopacity="1.0"
     inkscape:pageopacity="0.0"
     inkscape:pageshadow="2"
     inkscape:zoom="0.26153218"
     inkscape:cx="973.53008"
     inkscape:cy="827.22665"
     inkscape:document-units="mm"
     inkscape:current-layer="layer1"
     inkscape:document-rotation="0"
     showgrid="false"
     inkscape:window-width="1920"
     inkscape:window-height="999"
     inkscape:window-x="-9"
     inkscape:window-y="-9"
     inkscape:window-maximized="1"
     objecttolerance="8" />
  <metadata
     id="metadata860">
    <rdf:RDF>
      <cc:Work
         rdf:about="">
        <dc:format>image/svg+xml</dc:format>
        <dc:type
           rdf:resource="http://purl.org/dc/dcmitype/StillImage" />
        <dc:title />
      </cc:Work>
    </rdf:RDF>
  </metadata>
  <g
     inkscape:label="Layer 1"
     inkscape:groupmode="layer"
     id="layer1"
     transform="translate(162.55738,24.610551)">
    <rect
       style="fill:#b7deff;fill-opacity:1;stroke:#000000;stroke-width:0.677101"
       id="rect927"
       width="511.32291"
       height="511.32291"
       x="-161.76363"
       y="-23.816801"
       inkscape:export-xdpi="23.809999"
       inkscape:export-ydpi="23.809999" />
    <path
       id="path94"
       style="fill:#b5e790;fill-opacity:1;stroke:#ffffff;stroke-width:3.99999;stroke-miterlimit:4;stroke-dasharray:none;stroke-opacity:1"
       d="m 1071.5586,206.12305 -8.4082,7.82226 -8.4082,7.82422 -14.2344,2.40235 -14.2324,2.40234 1.1035,16.70898 1.1055,16.71094 5.2051,5.7793 5.205,5.77929 2.6875,11.32032 2.6875,11.32226 5.6582,6.51367 5.6582,6.51563 2.752,-1.70117 2.7519,-1.70117 4.8086,-17.17579 4.8086,-17.17578 3.3008,-2.03906 3.3008,-2.03906 2.2656,11.33008 2.2656,11.32812 4.961,1.9043 4.9609,1.9043 4.2031,-5.06446 4.2032,-5.0625 -11.4746,-18.09375 -11.4746,-18.09179 v -3.44532 -3.44336 l 9.9277,2.49219 9.9258,2.49023 8.9414,-8.40039 8.9414,-8.40039 v -6.48632 -6.48438 l -6.6035,-2.81641 -6.6036,-2.8164 -15.0937,-1.05664 z m 452.8574,74.38476 -7.5586,9.40039 -7.5586,9.40039 -7.0273,10.03711 -7.0293,10.03516 -7.4336,-1.94336 -7.4336,-1.94336 -16.168,8.5957 -16.166,8.59571 -8.2598,5.78515 -8.2578,5.78321 -2.8769,10.82031 -2.875,10.82031 -9.1797,1.30469 -9.1816,1.30469 -4.7168,3.875 -4.7168,3.87304 v 7.08594 7.08399 h -7.3243 -7.3242 l -2.332,3.77539 -2.332,3.77343 h -8.3184 -8.3164 l -3.7246,-8.46875 -3.7246,-8.46875 -6.5625,-1.23437 -6.5625,-1.23438 -4.2852,10.64649 -4.2851,10.64648 -3.7364,8.10742 -3.7363,8.10743 1.4746,15.47851 1.4766,15.47656 h -1.2305 -1.2305 l -10.1894,-5.13086 -10.1914,-5.13086 -10.4727,-2.51171 -10.4726,-2.51368 2.2949,9.14649 2.2949,9.14648 -15.6621,2.64453 -15.6601,2.64649 -2.1114,-2.11133 -2.1113,-2.11133 -10.7324,5.55078 -10.7344,5.55078 -7.6563,8.21876 -7.6562,8.21874 -0.4004,-3.54296 -0.4023,-3.54102 -0.5411,-7.54687 -0.5429,-7.54883 h -5.6602 -5.6601 l -1.1719,14.15234 -1.1699,14.15039 h -5.4336 -5.4317 v -7.39453 -7.39453 l -10.3789,-9.96094 -10.3769,-9.95898 -12.127,-5.28125 -12.1289,-5.2793 -11.5879,-11.32812 -11.5879,-11.32813 h -9.4765 -9.4766 l -15.8652,8.52734 -15.8653,8.52539 -12.2636,9.16602 -12.2657,9.16406 v 6.5625 6.56446 l -12.8027,24.5625 -12.8027,24.5625 -13.6114,11.95312 -13.61323,11.95117 v 16.28125 16.28321 l 2.29101,5.96875 2.28906,5.96875 h 8.27736 8.2754 l 4.4043,-4.4043 4.4043,-4.4043 2.0097,6.29102 2.0118,6.29101 1.746,5.60547 1.7481,5.60547 -7.5234,-4.66211 -7.5215,-4.66211 -3.6524,5.66016 -3.6523,5.66211 2.1699,10.32617 2.168,10.32617 -9.6699,4.40625 -9.66997,4.40625 -5.91796,9.03125 -5.91602,9.03125 -8.69922,-16.36133 -8.69922,-16.35937 -4.07617,-7.4043 -4.07812,-7.40234 -2.24805,-10.62305 -2.24805,-10.62305 -8.35742,1.18946 -8.35742,1.1875 -1.14063,13.63476 -1.14062,13.63672 -8.76563,3.99219 -8.76367,3.99414 -1.75781,11.9668 -1.75586,11.96679 5.57226,2.13672 5.57032,2.13867 6.09179,-3.83593 6.08985,-3.83399 1.31054,-7.14453 1.3086,-7.14258 3.46094,-3.63672 3.45898,-3.63867 -0.99609,18.70313 -0.9961,18.70117 13.20899,1.92969 13.20703,1.92968 -12.26367,5.16211 -12.26563,5.16211 v 4.01758 4.01563 l 7.90625,8.41211 7.9043,8.41406 -2.63086,8.28711 -2.63086,8.28906 -13.76367,-2.1875 -13.76367,-2.1875 -4.13672,2.71094 -4.13672,2.71094 -2.38477,17.84765 -2.38476,17.84961 10.15234,9.41211 5.95703,5.52539 15.01758,1.97461 4.67774,-1.4707 9.55078,-6.25782 7.30468,-5.43164 v -5.44336 -5.4414 l 11.34766,-12.92383 11.34766,-12.92383 12.70114,-2.38281 12.7012,-2.38281 12.3594,10.45898 12.3613,10.45703 7.125,6.74219 7.127,6.74219 3.6347,-2.24805 3.6367,-2.24609 v -4.73242 -4.73243 l -11.3203,-10.8457 -11.3222,-10.8457 v -5.13282 -5.13281 l 15.0957,12.13086 15.0937,12.13086 v 4.8125 4.8125 l 8.0137,13.58398 8.0137,13.58204 4.2519,-1.39258 4.25,-1.39258 1.1817,-11.97461 1.1835,-11.97461 h 3.2227 3.2246 l 6.9141,14.15234 6.916,14.1504 20.7539,1.88671 20.7559,1.88672 -1.2305,11.29297 -1.2285,11.29297 -1.502,1.50195 -1.5019,1.5 2.2148,11.43946 5.0234,22.08593 16.6582,27.96485 13.1231,30.74219 1.7109,12.63867 10.6211,3.83984 3.2813,5.21094 17.9258,-6.4336 17.9257,-6.43164 18.7403,-12.3789 18.7422,-12.37696 5.7871,-10.60546 5.7871,-10.60743 -8.9082,-7.31835 -8.9102,-7.31836 h 25.1192 25.1191 l 9.2617,9.26367 9.2617,9.26172 v 3.50586 3.5039 l 7.0371,1.83985 7.0352,1.83984 2.4336,12.75195 2.4316,12.75196 9.2266,19.81054 9.2266,19.8125 h 7.7207 7.7207 v 5.66016 5.66015 h 5.4375 5.4375 l 2.1445,-3.46874 2.1445,-3.46876 -6.0175,-6.01953 -6.0176,-6.01757 2.539,-15.03711 2.5411,-15.03907 19.0175,-16.63672 19.0196,-16.63671 9.2871,-1.77539 9.289,-1.7754 7.1973,11.80469 7.1992,11.80469 0.016,4.45508 0.014,4.45508 8.1738,1.20507 8.1739,1.20704 4.0898,12.02343 4.0899,12.02344 6.9453,-3.91211 6.9453,-3.91015 10.2441,9.8125 10.2422,9.8125 h 3.3242 3.3223 l 8.7344,-8.20508 8.7344,-8.20508 v -6.59961 -6.60156 l -9.4571,-11.23828 -9.459,-11.24024 2.3145,-6.03125 2.3144,-6.03125 h 5.2559 5.2578 v 5.66016 5.66015 h 3.8926 3.8906 l 2.2774,-5.93164 2.2773,-5.93359 20.1484,-8.91016 20.1504,-8.91211 7.7227,-12.51562 7.7226,-12.51367 2.3184,-8.88867 2.3164,-8.89063 -6.3711,-13.36133 -6.373,-13.36133 3.9765,-3.97656 3.9766,-3.97656 v -4.46485 -4.46484 l -8.168,-2.13672 -8.1679,-2.13672 4.3222,-5.20703 4.3223,-5.20898 10.9492,1.60742 10.9492,1.60742 4.0235,8.12695 4.0214,8.12696 1.1817,7.5039 1.1816,7.50391 6.3067,1.21484 6.3047,1.21485 4.0468,-7.56055 4.045,-7.55859 -4.1583,-9.12696 -4.1582,-9.12695 6.125,-11.84375 6.1231,-11.84375 h 8.9473 8.9453 l 11.6425,-13.25976 11.6407,-13.25782 5.9277,-11.46289 5.9277,-11.46094 7.3692,2.3379 7.3691,2.33984 2.3574,-6.14258 2.3575,-6.14453 -3.3184,-15.69531 -3.3203,-15.69727 -14.873,-4.16992 -14.8731,-4.17187 -1.4902,-4.47071 -1.4903,-4.46875 16.1797,-19.32422 16.1797,-19.32422 29.5137,2.02344 29.5156,2.02149 5.3262,-10.30079 5.3261,-10.30078 5.2833,-4.38281 5.2812,-4.38476 10.0313,4.6582 10.0332,4.6582 0.029,2.09375 0.031,2.0918 -13.5,14.73828 -13.498,14.73633 -3.4825,6.50781 -3.4824,6.50781 v 13.20899 13.21094 l 3.836,10.08984 3.8359,10.08984 5.4883,-4.55468 5.4882,-4.55469 11.4297,-17.25781 11.4317,-17.25782 V 590.5 576.77344 l 4.8496,-6.63086 4.8496,-6.63281 16.8496,-2.1211 16.8477,-2.12109 8.1328,-7.38477 8.1347,-7.38281 14.5079,-5.11914 14.5097,-5.11719 -1.459,-4.9375 -1.4609,-4.93945 -1.8105,-8.49024 -1.8106,-8.49023 h 4.2129 4.2148 v -30.10156 -30.10352 l -8.4902,-5.32422 -8.4922,-5.32226 -14.2148,-2.49414 -14.2149,-2.49414 -4.6133,2.85156 -4.6113,2.84961 -23.957,0.48437 -23.9551,0.48438 -3.2109,-8.44531 -3.211,-8.44532 -4.5996,-2.84375 -4.5996,-2.84179 -16.1172,0.60937 -16.1172,0.60938 -7.4043,-10.39844 -7.4043,-10.39649 -17.1093,-5.04882 -17.1094,-5.04883 -6.8906,1.29687 -6.8887,1.29688 -3.7266,8.46875 -3.7246,8.46875 -11.3691,0.44726 -11.3692,0.44727 -4.998,-0.67773 -4.9961,-0.67579 -5.2148,4.32813 -5.2168,4.32812 -3.9375,-2.43554 -3.9395,-2.4336 v -14.41015 -14.41016 l -4.7168,-3.68945 -4.7168,-3.69141 -9.4355,-2.34961 -9.4336,-2.34765 -6.2031,8.16015 -6.2012,8.16211 -10.7793,-7.08789 -10.7793,-7.08594 -13.207,-2.17382 -13.209,-2.17188 0.8789,-9.36133 0.8769,-9.36328 2.1992,-13.20703 2.1993,-13.20898 -5.1485,-6.92383 -5.1484,-6.92578 -13.0234,-2.61915 -13.0235,-2.61914 -3.6933,-8.30859 -3.6934,-8.30859 -5.7305,-2.19727 z m -1043.43358,6.76758 -2.51562,2.51758 -2.51563,2.51562 h 5.03125 5.03125 l -2.51562,-2.51562 z"
       transform="matrix(0.26458333,0,0,0.26458333,-162.10218,-24.155352)" />
    <path
       id="path925"
       style="fill:#b5e790;fill-opacity:1;stroke:#ffffff;stroke-width:3.99999;stroke-miterlimit:4;stroke-dasharray:none;stroke-opacity:1"
       d="m 651.05273,1413.0742 -13.29687,6.3418 -13.29883,6.3418 -2.16211,6.8145 -2.16211,6.8125 -11.60742,11.6054 -11.60547,11.6075 4.29688,4.2949 4.29492,4.2969 v 8.8496 8.8515 l -13.20703,-2.4785 -13.20703,-2.4785 v 5.5723 5.5722 l -7.54883,9.5938 -7.54688,9.5957 v 10.3086 10.3105 l 6.59766,4.8242 6.59961,4.8243 -2.70508,2.7031 -2.70312,2.7051 -11.64454,-4.8243 -11.64648,-4.8242 -12.92188,12.5235 -12.91992,12.5234 -6.6875,-5.8652 -6.68554,-5.8672 -12.07813,-6.1153 -12.07617,-6.1152 h -12.93359 -12.9336 l -4.69726,-5.6601 -4.69727,-5.6602 h -14.16992 -14.17188 l -4.95117,5.9648 -4.94922,5.9649 4.39649,20.9609 4.39648,20.959 -2.02344,3.2734 -2.02148,3.2715 -15.81055,-2.5097 -15.81054,-2.5079 -9.71875,-7.1562 -9.71875,-7.1563 -33.67774,-4.8828 -33.67773,-4.8828 -5.9336,-2.5879 -5.93164,-2.5879 -4.36328,9.5801 -4.36523,9.5801 h -9.72266 -9.7207 l -26.60547,11.3203 -26.60352,11.3223 h -11.29882 -11.29883 l -11.36133,12.1621 -11.36133,12.1621 -3.24023,8.5234 -3.24024,8.5215 -10.98047,-2.1953 -10.97851,-2.1973 -8.00977,4.2871 -8.00781,4.2852 v 5.0801 5.0801 l -12.63867,9.6386 -12.640627,9.6407 -26.039062,-3.8516 -26.041016,-3.8535 -15.095703,-7.2383 -15.0937501,-7.2363 -2.8300781,0.016 -2.8300782,0.014 v 141.5117 141.5137 H 967.7832 l 966.0547,-0.01 v -140.5918 -140.5938 l -15.0352,-4.6933 -15.0351,-4.6914 h -20.0586 -20.0606 l -4.1992,4.1992 -4.1992,4.1992 -3.957,-2.4453 -3.9571,-2.4453 -2.4882,-13.2676 -2.4883,-13.2676 6.7324,-21.5058 6.7344,-21.5059 12.2597,-11.3223 12.2618,-11.3203 2.5664,-13.7773 2.5664,-13.7774 -14.4336,-9.8085 -14.4336,-9.8067 h -8.0957 -8.0957 l -4.543,-5.4746 -4.543,-5.4726 -19.7226,-11.1309 -19.7227,-11.1309 h -14.2304 -14.2325 l -9.1777,-8.6211 -9.1777,-8.6211 -25.4297,-6.6328 -25.4317,-6.6328 -11.5429,-0.2187 -11.543,-0.2168 -7.3145,5.3476 -7.3144,5.3496 -4.4356,-3.6816 -4.4335,-3.6797 -22.4317,4.0664 -22.4316,4.0684 -7.1075,-2.5352 -7.1074,-2.5351 -6.7929,-5.8438 -6.793,-5.8437 -12.5137,6.7402 -12.5137,6.7383 -18.4296,-7.5606 -18.4297,-7.5625 -16.4707,-1.8925 -16.4688,-1.8946 -1.9062,7.2871 -1.9063,7.2871 -9.0312,2.2676 -9.0313,2.2656 -16.4375,-2.4648 -16.4394,-2.4648 -18.3086,13.9765 -18.3106,13.9766 -6.1621,7.6094 -6.164,7.6113 -17.2344,-8.1016 -17.2363,-8.1015 -2.2227,-3.5977 -2.2246,-3.5977 -24.5274,-2.6269 -24.5293,-2.627 -13.9531,-11.0898 -13.9551,-11.0879 -9.5918,2.4043 -9.5918,2.4043 -6.5742,7.0527 -6.5742,7.0508 -17.9551,7.9395 -17.9531,7.9394 -10.0605,9.6328 -10.0586,9.6328 -11.7891,-6.9628 -11.7871,-6.9629 -19.7461,10.6816 -19.7461,10.6816 -9.3496,-0.125 -9.3516,-0.123 -24.1191,-4.0156 -24.1172,-4.0157 -4.9746,4.129 -4.9746,4.1289 -36.94728,-0.7286 -36.94531,-0.7285 -22.64258,5.9004 -22.64062,5.9004 -8.07422,9.3125 -8.07227,9.3125 -18.53711,9.3926 -18.53515,9.3926 -4.32032,9.4804 -4.31836,9.4805 -10.58203,1.2149 -10.58203,1.2128 -1.11914,9.4336 -1.11914,9.4356 -4.19336,11.3203 -4.19531,11.3203 -25.19727,24.8418 -25.19726,24.8418 -9.11328,-3.3984 -9.11133,-3.4004 -10.64453,2.1015 -10.64453,2.1035 -10.11133,-5.3691 -10.10938,-5.3672 -16.29687,-19.1777 -16.29688,-19.1777 -13.89258,-5.7247 -13.89257,-5.7265 -4.33204,-5.7324 -4.33203,-5.7305 4.50586,-19.6172 4.50586,-19.6191 -3.94726,-26.4278 -3.94727,-26.4297 0.92188,-15.08 0.92382,-15.0821 0.63672,-9.4336 0.63868,-9.4355 -2.81055,-6.3477 -2.81055,-6.3496 11.62695,-6.0117 11.62696,-6.0137 v -3.6757 -3.6778 h -5.53125 z"
       transform="matrix(0.26458333,0,0,0.26458333,-162.10218,-24.155352)" />
    <path
       id="path134"
       style="fill:#b5e790;fill-opacity:1;stroke:#ffffff;stroke-width:3.99999;stroke-miterlimit:4;stroke-dasharray:none;stroke-opacity:1"
       d="m 1232.5781,1034.8477 -14.916,11.9863 -14.916,11.9883 -2.2637,19.1113 -2.2636,19.1133 3.7851,7.0722 3.7852,7.0723 h 5.4414 5.4394 l 5.4766,-8.4922 5.4746,-8.4902 6.7148,-25.4453 6.7149,-25.4453 -4.2363,-4.2344 z"
       transform="matrix(0.26458333,0,0,0.26458333,-162.10218,-24.155352)" />
    <path
       id="path132"
       style="fill:#b5e790;fill-opacity:1;stroke:#ffffff;stroke-width:3.99999;stroke-miterlimit:4;stroke-dasharray:none;stroke-opacity:1"
       d="m 1680.3613,1027.8652 -6.8769,2.1836 -6.8789,2.1817 -2.1153,5.5175 -2.1172,5.5176 h -10.8593 -10.8594 l -15.4551,16.9805 -15.4531,16.9805 h -7.2598 -7.2597 l -10.2871,8.0937 -10.2872,8.0918 1.834,13.6055 1.836,13.6074 5.0175,23.5059 5.0196,23.5078 5.0859,1.9511 5.084,1.9512 7.0273,-3.7598 7.0254,-3.7597 h 7.9278 7.9277 l 8.3594,-5.4688 8.3574,-5.4707 15.0937,-2.3789 15.0958,-2.3769 18.8476,14.4511 18.8457,14.4512 6.9004,8.4922 6.8984,8.4902 h 16.2891 16.2891 l 7.3906,-6.6035 7.3906,-6.6035 10.3672,-23.9141 10.3672,-23.9121 -2.418,-12.8925 -2.4179,-12.8926 -18.6954,-22.4649 -18.6953,-22.4648 v -3.0625 -3.0625 l -9.6367,-14.1817 -9.6367,-14.1816 -3.5703,2.207 -3.5723,2.2071 v 11.2168 11.2168 l -5.3652,2.0586 -5.3653,2.0605 -7.8418,-4.1973 -7.8437,-4.1972 v -8.8926 -8.8926 l -9.7539,-2.4472 z m 250.1485,26.7207 -2.3321,3.7735 -2.332,3.7734 h 1.8867 1.8867 l 2.3321,-3.7734 2.332,-3.7735 h -1.8867 z m -26.043,124.5293 -2.4102,9.6075 -2.4121,9.6093 2.2422,3.625 2.2403,3.627 -6.5801,2.5254 -6.5801,2.5254 -14.4141,13.9882 -14.414,13.9883 v 5.7871 5.7871 l 4.7168,1.9043 4.7168,1.9024 2.6582,0.2988 2.6582,0.2988 13.4336,-17.9257 13.4336,-17.9258 11.9121,-12.8399 11.9121,-12.8379 -8.6094,-6.9726 -8.6113,-6.9727 h -2.9453 z m -146.7285,26.17 -6.291,2.414 -6.2911,2.4141 v 6.5137 6.5156 l 2.6465,2.6465 2.6446,2.6464 5.8027,-1.1191 5.8008,-1.1172 1.3398,-6.9609 1.3418,-6.961 -3.498,-3.4961 z"
       transform="matrix(0.26458333,0,0,0.26458333,-162.10218,-24.155352)" />
    <path
       id="path130"
       style="fill:#b5e790;fill-opacity:1;stroke:#ffffff;stroke-width:3.99999;stroke-miterlimit:4;stroke-dasharray:none;stroke-opacity:1"
       d="m 1672.9316,967.79297 1.2051,8.49023 1.2071,8.49024 16.0371,7.44922 16.039,7.44922 v 4.71872 4.7168 l 11.3535,5.8731 11.3555,5.8711 7.7871,-4.1661 7.7852,-4.1679 8.2187,5.7422 8.2168,5.7402 4.7168,0.1992 4.7188,0.1973 v -1.961 -1.9628 l -9.2735,-14.6875 -9.2715,-14.68754 -21.6562,-8.10352 -21.6563,-8.10156 -8.2636,2.07422 -8.2637,2.07422 -4.666,-5.625 -4.668,-5.62305 h -5.4609 z"
       transform="matrix(0.26458333,0,0,0.26458333,-162.10218,-24.155352)" />
    <path
       id="path128"
       style="fill:#b5e790;fill-opacity:1;stroke:#ffffff;stroke-width:3.99999;stroke-miterlimit:4;stroke-dasharray:none;stroke-opacity:1"
       d="m 1496.0938,914.96094 v 5.4375 5.4375 l 3.7753,2.33203 3.7735,2.33203 v 7.32617 7.32422 h -3.5508 -3.5527 l -2.3321,-3.77344 -2.332,-3.77343 H 1486.4375 1481 v 3.73046 3.73243 l 16.8125,22.10742 16.8145,22.10742 12.5527,9.57617 12.5547,9.57418 7.4258,1.8848 7.4257,1.8828 12.2657,0.4395 12.2617,0.4375 v -3.7032 -3.7011 l -10.3789,-2.0977 -10.377,-2.0976 -9.4336,-2.79301 -9.4355,-2.79297 -0.049,-6.1621 -0.049,-6.16211 -6.5527,-7.24024 -6.5547,-7.24219 v -11.28125 -11.28125 l -12.127,-15.77929 -12.1289,-15.78125 h -2.9668 z m 101.08,16.03515 -22.2383,15.34375 -22.2363,15.34571 v 6.10547 6.10546 l 4.7168,6.11524 4.7168,6.11523 9.4356,1.63867 9.4336,1.64063 4.6191,0.51367 4.6211,0.51367 6.3437,-12.26367 6.3438,-12.26562 0.873,-15.09375 0.8711,-15.09375 -3.75,-2.36133 z m 12.2735,36.79493 -2.3125,9.2207 -2.3145,9.21875 2.4649,3.98828 2.4648,3.98828 h 9.6504 9.6484 l -2.2754,-8.49023 -2.2754,-8.49024 -0.049,-4.71679 -0.051,-4.71875 h -7.4746 z"
       transform="matrix(0.26458333,0,0,0.26458333,-162.10218,-24.155352)" />
    <path
       style="fill:#b5e790;fill-opacity:1;stroke:#ffffff;stroke-width:3.99999;stroke-miterlimit:4;stroke-dasharray:none;stroke-opacity:1"
       d="m 1634.9766,899.48438 -4.3457,1.54492 -4.3457,1.54492 1.0507,12.53906 1.0508,12.54102 3.9434,4.75 3.9414,4.75 5.3847,-2.06641 5.3848,-2.06641 v -4.67773 -4.67578 l -6.0332,-12.0918 z"
       transform="matrix(0.26458333,0,0,0.26458333,-162.10218,-24.155352)"
       id="path919" />
    <path
       style="fill:#b5e790;fill-opacity:1;stroke:#ffffff;stroke-width:3.99999;stroke-miterlimit:4;stroke-dasharray:none;stroke-opacity:1"
       d="m 1613.2207,865.90234 -2.3789,9.48438 -2.3809,9.48242 4.6582,5.61133 4.6563,5.61133 h 4.3555 4.3535 l -1.4395,-15.09375 -1.4394,-15.09571 h -5.1914 z"
       transform="matrix(0.26458333,0,0,0.26458333,-162.10218,-24.155352)"
       id="path917" />
    <path
       style="fill:#b5e790;fill-opacity:1;stroke:#ffffff;stroke-width:3.99999;stroke-miterlimit:4;stroke-dasharray:none;stroke-opacity:1"
       d="m 594.19141,857.83008 -8.19532,1.20703 -8.19531,1.20508 -1.55273,4.71679 -1.55274,4.7168 h 9.74805 9.74805 v -5.92187 z"
       transform="matrix(0.26458333,0,0,0.26458333,-162.10218,-24.155352)"
       id="path915" />
    <path
       style="fill:#b5e790;fill-opacity:1;stroke:#ffffff;stroke-width:3.99999;stroke-miterlimit:4;stroke-dasharray:none;stroke-opacity:1"
       d="m 534.47266,838.63867 -4.70899,1.57031 -4.71094,1.57032 16.63282,9.82226 16.63281,9.82227 2.8418,-1.75781 2.84179,-1.75586 v -2.97852 -2.97656 l -14.76367,-6.6582 z"
       transform="matrix(0.26458333,0,0,0.26458333,-162.10218,-24.155352)"
       id="path913" />
    <path
       style="fill:#b5e790;fill-opacity:1;stroke:#ffffff;stroke-width:3.99999;stroke-miterlimit:4;stroke-dasharray:none;stroke-opacity:1"
       d="m 1613.0781,831.93945 v 5.66211 5.66016 h 3.7735 3.7734 v -5.66016 -5.66211 h -3.7734 z"
       transform="matrix(0.26458333,0,0,0.26458333,-162.10218,-24.155352)"
       id="path911" />
    <path
       style="fill:#b5e790;fill-opacity:1;stroke:#ffffff;stroke-width:3.99999;stroke-miterlimit:4;stroke-dasharray:none;stroke-opacity:1"
       d="m 1232.0117,800.41406 10.5449,10.10352 10.545,10.10156 h 4.8242 4.8262 l -1.5704,4.7168 -1.5703,4.71679 -5.3476,1.01172 -5.3477,1.01172 -10.748,-13.53711 -10.7461,-13.53515 2.2949,-2.29493 z"
       transform="matrix(0.26458333,0,0,0.26458333,-162.10218,-24.155352)"
       id="path909" />
    <path
       style="fill:#b5e790;fill-opacity:1;stroke:#ffffff;stroke-width:3.99999;stroke-miterlimit:4;stroke-dasharray:none;stroke-opacity:1"
       d="m 1039.4766,745.14648 v 3.77344 3.77344 h 5.6621 5.6601 v -3.77344 -3.77344 h -5.6601 z"
       transform="matrix(0.26458333,0,0,0.26458333,-162.10218,-24.155352)"
       id="path907" />
    <path
       style="fill:#b5e790;fill-opacity:1;stroke:#ffffff;stroke-width:3.99999;stroke-miterlimit:4;stroke-dasharray:none;stroke-opacity:1"
       d="m 1013.0625,726.27734 v 5.66211 5.66016 h 3.7734 3.7735 v -5.66016 -5.66211 h -3.7735 z"
       transform="matrix(0.26458333,0,0,0.26458333,-162.10218,-24.155352)"
       id="path905" />
    <path
       style="fill:#b5e790;fill-opacity:1;stroke:#ffffff;stroke-width:3.99999;stroke-miterlimit:4;stroke-dasharray:none;stroke-opacity:1"
       d="m 1727.0957,696.08789 -2.7266,6.60547 -2.7265,6.60352 -1.4199,10.74218 -1.42,10.74219 -4.748,9.59961 -4.7481,9.59961 -20.6308,10.94922 -20.6309,10.94922 -2.6054,4.21679 -2.6055,4.21485 1.9414,5.06054 1.9414,5.0586 h 2.9082 2.9082 l 4.6758,-5.63281 4.6738,-5.63282 14.2988,-3.84961 14.2969,-3.85156 8.5606,-6.93164 8.5605,-6.93164 0.2871,-19.43164 0.2871,-19.43164 3.9961,-0.002 3.9961,-0.004 7.3242,-5.42578 7.3262,-5.42774 -7.5469,-5.77343 -7.5488,-5.7754 -4.3125,-0.11914 z"
       transform="matrix(0.26458333,0,0,0.26458333,-162.10218,-24.155352)"
       id="path903" />
    <path
       style="fill:#b5e790;fill-opacity:1;stroke:#ffffff;stroke-width:3.99999;stroke-miterlimit:4;stroke-dasharray:none;stroke-opacity:1"
       d="m 518.95508,692.31445 h 5.54297 5.54101 v 5.66016 5.66211 h -3.36914 -3.37109 l -2.17188,-5.66211 z"
       transform="matrix(0.26458333,0,0,0.26458333,-162.10218,-24.155352)"
       id="path901" />
    <path
       style="fill:#b7deff;fill-opacity:1;stroke:#ffffff;stroke-width:3.99999;stroke-miterlimit:4;stroke-dasharray:none;stroke-opacity:1"
       d="m 1131.4434,688.54102 h 5.08 5.0801 l 2.1719,5.66015 2.1719,5.66211 h 5.375 5.375 l 2.1718,-5.66211 2.1719,-5.66015 h 3.3711 3.3691 v 5.57421 5.57422 l 9.4336,6.17969 9.4356,6.18164 v 4.70313 4.70312 l -32.4356,-0.41992 -32.4355,-0.41992 -1.5898,-2.57031 -1.5899,-2.57227 6.4219,-13.4668 z"
       transform="matrix(0.26458333,0,0,0.26458333,-162.10218,-24.155352)"
       id="path899" />
    <path
       style="fill:#b7deff;fill-opacity:1;stroke:#ffffff;stroke-width:3.99999;stroke-miterlimit:4;stroke-dasharray:none;stroke-opacity:1"
       d="m 1250.9766,684.76758 -6.2735,9.57422 -6.2734,9.57422 8.0723,8.59375 8.0742,8.59375 v 15.79492 15.79492 h -9.5528 v 0 h -9.5508 l -2.1738,-5.66016 -2.1719,-5.66015 1.8828,-4.90821 1.8848,-4.90625 -5.1211,-9.24414 -5.1192,-9.24414 -0.1328,-9.01758 -0.1328,-9.01757 6.6035,-5.01368 6.6036,-5.01367 6.6914,-0.11914 z"
       transform="matrix(0.26458333,0,0,0.26458333,-162.10218,-24.155352)"
       id="path897" />
    <path
       style="fill:#b5e790;fill-opacity:1;stroke:#ffffff;stroke-width:3.99999;stroke-miterlimit:4;stroke-dasharray:none;stroke-opacity:1"
       d="m 1730.0605,677.2207 v 1.88672 1.88672 h 1.8868 1.8867 v -1.88672 -1.88672 h -1.8867 z"
       transform="matrix(0.26458333,0,0,0.26458333,-162.10218,-24.155352)"
       id="path895" />
    <path
       style="fill:#b5e790;fill-opacity:1;stroke:#ffffff;stroke-width:3.99999;stroke-miterlimit:4;stroke-dasharray:none;stroke-opacity:1"
       d="m 500.21289,669.04883 5.47852,4.54883 5.48047,4.54687 v 3.31055 3.3125 l -2.83008,-0.4375 -2.83008,-0.4375 -7.54883,-1.81641 -7.54687,-1.81445 -3.20899,-3.0332 -3.21094,-3.03125 8.10743,-2.57422 z"
       transform="matrix(0.26458333,0,0,0.26458333,-162.10218,-24.155352)"
       id="path893" />
    <path
       style="fill:#b5e790;fill-opacity:1;stroke:#ffffff;stroke-width:3.99999;stroke-miterlimit:4;stroke-dasharray:none;stroke-opacity:1"
       d="m 1133.8184,552.68945 h 1.8867 1.8867 v 1.88672 1.88672 h -1.8867 -1.8867 v -1.88672 z"
       transform="matrix(0.26458333,0,0,0.26458333,-162.10218,-24.155352)"
       id="path891" />
    <path
       style="fill:#b7deff;fill-opacity:1;stroke:#ffffff;stroke-width:3.99999;stroke-miterlimit:4;stroke-dasharray:none;stroke-opacity:1"
       d="m 1095.4102,495.71875 2.6347,4.26367 2.6348,4.26367 -9.8457,10.27735 -9.8457,10.27734 v 17.83594 17.83789 l 5.3984,2.07227 5.4004,2.07031 -0.3086,10.83203 -0.3086,10.83203 -4.5547,1.74805 -4.5547,1.74804 -2.1445,10.72266 -2.1445,10.72266 -17.2266,3.99804 -17.2265,3.9961 -4.0313,-2.49219 -4.0332,-2.49219 9.8301,-6.44336 9.832,-6.4414 4.0723,-10.17774 4.0703,-10.17773 3.9414,-8.49024 3.9414,-8.49023 -4.7969,-8.96289 -4.7949,-8.96289 4.7578,-8.96289 4.7578,-8.96094 6.9473,-4.93164 6.9492,-4.93164 v -6.8711 -6.87109 l 5.3242,-4.41797 z"
       transform="matrix(0.26458333,0,0,0.26458333,-162.10218,-24.155352)"
       id="path126" />
    <path
       style="fill:#b7deff;fill-opacity:1;stroke:#ffffff;stroke-width:3.99999;stroke-miterlimit:4;stroke-dasharray:none;stroke-opacity:1"
       d="m 1156.4609,487.73047 5.9688,2.29101 5.9687,2.29102 h 5.3516 5.3516 v 5.21875 5.2207 l -9.3438,1.78711 -9.3457,1.78711 -1.9766,-1.97656 -1.9746,-1.97461 v -7.32227 z"
       transform="matrix(0.26458333,0,0,0.26458333,-162.10218,-24.155352)"
       id="path124" />
    <path
       id="path122"
       style="fill:#b5e790;fill-opacity:1;stroke:#ffffff;stroke-width:3.99999;stroke-miterlimit:4;stroke-dasharray:none;stroke-opacity:1"
       d="m 1.7285156,450.80078 0.3769532,27.35938 0.375,27.35937 3.0214843,-9.43359 3.0214844,-9.43555 0.3769531,6.60547 0.375,6.60352 h 5.1992184 5.197266 l 4.699219,5.66015 4.697265,5.66016 6.140625,-0.11914 h 0.002 l 6.140624,-0.11719 6.931641,-9.51563 6.929688,-9.51562 -2.126953,-5.54688 -2.128907,-5.54492 -6.689453,-2.46679 -6.689453,-2.4668 L 22.748047,463.34375 7.9179688,450.80078 H 4.8222656 Z"
       transform="matrix(0.26458333,0,0,0.26458333,-162.10218,-24.155352)" />
    <path
       style="fill:#b5e790;fill-opacity:1;stroke:#ffffff;stroke-width:3.99999;stroke-miterlimit:4;stroke-dasharray:none;stroke-opacity:1"
       d="m 1228.166,443.25391 v 5.88281 5.88281 l 3.7735,-2.33203 3.7734,-2.33203 v -3.55078 -3.55078 h -3.7734 z"
       transform="matrix(0.26458333,0,0,0.26458333,-162.10218,-24.155352)"
       id="path120" />
    <path
       id="path118"
       style="fill:#b5e790;fill-opacity:1;stroke:#ffffff;stroke-width:3.99999;stroke-miterlimit:4;stroke-dasharray:none;stroke-opacity:1"
       d="m 1.7285156,409.29102 v 5.66015 5.66016 h 5.6601563 5.6601561 v -5.66016 -5.66015 H 7.3886719 Z"
       transform="matrix(0.26458333,0,0,0.26458333,-162.10218,-24.155352)" />
    <path
       id="path116"
       style="fill:#b5e790;fill-opacity:1;stroke:#ffffff;stroke-width:3.99999;stroke-miterlimit:4;stroke-dasharray:none;stroke-opacity:1"
       d="m 1933.8379,408.8457 -3.7734,2.33203 -3.7735,2.33204 v 3.55078 3.55078 h 3.7735 3.7734 v -5.88281 z"
       transform="matrix(0.26458333,0,0,0.26458333,-162.10218,-24.155352)" />
    <path
       id="path114"
       style="fill:#b5e790;fill-opacity:1;stroke:#ffffff;stroke-width:3.99999;stroke-miterlimit:4;stroke-dasharray:none;stroke-opacity:1"
       d="m 1722.5137,363.19922 v 7.63672 7.63672 l 4.7168,1.6914 4.7168,1.69336 2.83,-1.60156 2.8321,-1.59961 v -5.4375 -5.4375 h -1.5801 -1.5781 l -5.9688,-2.29102 z"
       transform="matrix(0.26458333,0,0,0.26458333,-162.10218,-24.155352)" />
    <path
       id="path112"
       style="fill:#b5e790;fill-opacity:1;stroke:#ffffff;stroke-width:3.99999;stroke-miterlimit:4;stroke-dasharray:none;stroke-opacity:1"
       d="m 306.82422,351.74219 -2.85938,3.30273 -2.85937,3.30274 -4.51367,20.5625 -4.51172,20.5625 9.39648,9.39843 9.39844,9.39649 7.04492,-6.37305 7.04297,-6.375 h 2.16406 2.16407 l 4.14257,11.88281 4.14453,11.88477 v 8.9668 8.96875 l -11.13476,-5.75782 -11.13281,-5.75586 h -13.17383 -13.17188 l -2.11328,-3.41992 -2.11328,-3.41992 -8.48633,1.84766 -8.48828,1.84765 -7.54687,2.98828 -7.54688,2.99024 -10.09961,4.03515 -10.09765,4.03516 -15.19141,-7.33984 -15.19141,-7.33985 h -5.6582 -5.6582 l -21.88282,-5.64843 -21.88281,-5.64844 -10.27929,-4.20117 -10.27735,-4.20313 -17.08008,10.00977 -17.082028,10.00976 v 3.46289 3.46094 l -10.251953,9.50781 -10.251953,9.50586 12.878906,13.28907 12.88086,13.2871 -9.232422,0.0586 -9.230469,0.0566 -5.228515,3.31055 -5.226563,3.31054 2.46875,9.83985 2.46875,9.83984 h 13.136719 13.136719 l -0.01953,4.7168 -0.02344,4.71679 -11.296875,6.42774 -11.296875,6.42773 v 12.71289 12.71485 l 15.433594,10.10351 15.433595,10.10352 h 5.32031 5.32227 v 4.51172 4.50976 l -10.13867,10.58399 -10.14063,10.58398 h 6.07617 6.07813 l 11.45117,-9.63476 11.45117,-9.63672 6.76367,1.14453 6.76172,1.14648 -0.99609,-12.55078 -0.9961,-12.55273 6.65625,1.50781 6.65625,1.50781 10.6543,-5.23437 10.65234,-5.23242 11.98829,2.36132 11.99023,2.36329 10.37891,3.99609 10.38086,3.99609 28.29882,36.03711 28.30079,36.03906 v 6.24219 6.24219 l 9.43359,8.86328 9.43555,8.86328 v 29.65625 29.65625 l 9.07812,17.91602 9.07617,17.91406 9.15235,4.89844 9.15234,4.89648 9.98438,19.71875 9.98437,19.71875 9.52149,8.94531 9.52343,8.94727 v -6.35156 -6.34961 l 7.5625,4.72265 7.5625,4.72266 7.66211,16.29883 7.66016,16.29687 19.68164,9.16407 19.68359,9.16406 11.32031,0.15625 11.32032,0.15625 7.32617,5.53906 7.32422,5.54102 h 6.71289 6.71484 l 8.19532,11.08593 8.19531,11.08399 9.84179,3.90234 9.8418,3.90039 7.54883,-0.83398 7.54687,-0.83594 1.20899,12.61719 1.20898,12.61719 -6.41406,7.08593 -6.41211,7.08594 -2.86914,15.68945 -2.86914,15.6875 15.25781,28.28711 15.25977,28.2872 12.28906,7.2519 12.28906,7.25 1.99024,5.1875 1.99023,5.1856 -5.05273,43.4492 -5.05078,43.4511 -3.07813,4.9649 -3.07812,4.9629 -2.59571,32.0761 -2.5957,32.0762 -3.98633,17.7403 -3.98828,17.7402 5.59766,18.8457 5.5957,18.8457 9.85937,7.7539 9.85743,7.7559 h 8.70312 8.70117 l 2.28321,-3.6914 2.28125,-3.6934 -8.65235,-11.7031 -8.65234,-11.7051 9.96875,-17.8574 9.9707,-17.8574 -3.71679,-6.6406 -3.71485,-6.6407 5.55274,-6.332 5.55273,-6.332 2.62695,-8.6133 2.62696,-8.6113 8.48632,-9.1582 8.48633,-9.1563 10.08789,-3.8359 10.08985,-3.836 v -11.414 -11.4141 l 8.49023,-0.2344 8.49024,-0.2324 12.89453,-17.6484 12.89258,-17.6485 3.98632,-12.9863 3.98633,-12.9883 17.89453,-7.5605 17.89258,-7.5606 5.79492,-14.4765 5.79102,-14.4785 v -8.791 -8.793 l 11.63086,-16.0547 11.63281,-16.0566 -2.08789,-8.3145 -2.08789,-8.31644 -16.56055,-8.27149 -16.56054,-8.26953 h -7.85547 -7.85352 l -2.1543,-3.48437 -2.15234,-3.48243 -11.10547,-2.43945 -11.10742,-2.43945 -2.17773,-6.86524 -2.17969,-6.86328 -9.13281,-9.85547 -9.13282,-9.85547 h -8.75586 -8.7539 l -14.74024,-12.15039 -14.74023,-12.15039 -11.5918,-0.94922 -11.59179,-0.95117 -19.98243,-2.49023 -19.98437,-2.49024 -8.83203,8.29688 -8.83203,8.29687 -14.58204,-1.19531 -14.58007,-1.19726 -1.05664,-9.4336 -1.05665,-9.43554 -1.7832,-8.24024 -1.7832,-8.24023 -10.36914,-1.19336 -10.36719,-1.19336 1.19727,-16.03906 1.19922,-16.03711 h -5.36524 -5.36328 l -10.17969,9.43359 -10.17969,9.43359 h -4.22656 -4.22461 l -6.90039,-6.24414 -6.90234,-6.24609 v -17.5625 -17.56055 l 4.92773,-6.73828 4.92578,-6.73633 14.94532,-0.76367 14.94531,-0.76367 4.26953,-2.63672 4.26953,-2.63867 11.1836,2.23633 11.18554,2.23633 6.12305,12.84179 6.12305,12.83985 h 3.43164 3.43164 l 1.76758,-4.7168 1.76757,-4.7168 -2.98633,-7.54687 -2.98632,-7.54688 -0.26368,-6.88086 -0.26562,-6.88086 15.13867,-13.58984 15.14063,-13.5918 -2.125,-6.69531 -2.125,-6.69336 15.28711,-15.28906 15.28711,-15.28711 v -3.55859 -3.56055 l 8.23437,-5.76758 8.23242,-5.76563 4.73438,3.92774 4.73242,3.92773 8.73242,-4.53711 8.73242,-4.53515 4.92188,-3.90625 4.92187,-3.9043 -11.52734,-4.8457 -11.52539,-4.8457 v -9.30274 -9.30273 l -4.7168,-2.24219 -4.71679,-2.24414 9.08593,1.73242 9.08399,1.73047 13.19336,-5.51172 13.19336,-5.51367 1.44726,1.44922 1.44922,1.44922 -4.52734,9.9375 -4.5293,9.9375 2.18945,2.1875 2.1875,2.18945 15.40625,2.06641 15.40625,2.0664 v -6.1582 -6.15625 l -7.54687,-7.54883 -7.54688,-7.54688 v -13.64257 -13.64063 l -12.77344,-11.83008 -12.77539,-11.83007 -8.44531,-19.8125 -8.44531,-19.81055 h -3.95703 -3.95508 l -6.66211,6.0293 -6.66406,6.02929 -4.01172,-2.47851 -4.00977,-2.47852 v -6.58398 -6.58594 l -12.72851,-12.33594 -12.72852,-12.33594 -12.74414,1.21875 -12.74414,1.21875 0.81445,22.64063 0.81446,22.64258 2.33789,11.53515 2.33594,11.53711 -5.98047,4.96289 -5.98242,4.96485 v 12.74609 12.7461 h -3.62891 -3.62695 l -3.95704,-14.69532 -3.95703,-14.69531 -9.77539,-2.45313 -9.77539,-2.45312 -9.99805,-6.58789 -10,-6.58789 -6.85546,-3.62305 -6.85743,-3.62305 -5.95312,-9.83593 -5.95313,-9.83399 2.67774,-10.66601 2.67578,-10.66407 15.23633,-15.23632 15.23828,-15.23633 4.91992,6.72851 4.91992,6.72852 13.56055,-2.54492 13.5625,-2.54492 v -4.58204 -4.58203 l -9.47461,-8.90039 -9.47461,-8.90039 8.85156,-9.68359 8.84961,-9.68164 -0.82617,-17.92578 -0.82422,-17.92383 h 7.75586 7.75586 l 6.7793,6.13476 6.7793,6.13672 -3.94336,7.36719 -3.94141,7.36719 2.12109,5.52734 2.1211,5.5293 7.92578,-4.24219 7.92773,-4.24219 1.97461,1.97461 1.97656,1.97657 -5.1289,11.68554 -5.12891,11.68555 -8.49219,2.14844 -8.49023,2.14843 v 7.13672 7.13867 h 10.66406 10.66211 l 8.57813,9.13086 8.57812,9.13086 10.92383,4.52539 10.92383,4.52539 7.41211,-8.93945 7.41015,-8.93945 -2.17187,-7.54688 -2.17383,-7.54687 -5.79883,-6.60352 -5.79883,-6.60351 h 4.35938 4.35742 v 3.77344 3.77343 h 5.57422 5.57227 l 6.5625,-10.01562 6.5625,-10.01563 -17.66602,-15.54687 -17.66797,-15.54492 2.20117,-8.41407 2.19922,-8.41211 -16.48047,-15.25586 -16.48242,-15.25781 -8.49023,-8.23633 -8.49024,-8.23828 v -4.21093 -4.2129 l -6.76172,-6.11914 -6.76367,-6.12109 -25.49219,0.43555 -25.49023,0.43359 -5.48242,7.82813 -5.48242,7.82617 0.0488,13.3125 0.0508,13.31054 2.15429,8.03125 2.1543,8.03125 9.11523,4.15235 9.11524,4.15234 v 7.32031 7.31836 l -2.0625,5.375 -2.0625,5.37305 -12.52539,-11.66797 -12.52539,-11.66992 -6.48047,-19.83984 -6.48047,-19.83789 9.74805,-11.58399 L 484.75,374.75 v -2.73047 -2.72851 l -4.5293,-4.5293 -4.52734,-4.52734 h -7.43945 -7.43946 l -6.90039,6.24414 -6.90039,6.24609 v -4.60938 -4.60937 l -10.3789,1.19531 -10.37696,1.19336 -1.20508,8.49024 -1.20703,8.49023 h -3.50976 -3.51172 v 4.95508 4.95508 l 11.01367,10.55273 11.01563,10.55273 4.08007,-2.52148 4.08008,-2.52148 v 13.24218 13.24219 l -5.33398,3.01758 -5.33203,3.01953 -1.27149,11.28711 -1.27148,11.28906 -6.78516,1.28711 -6.78515,1.28711 -5.56055,-4.61523 -5.5625,-4.61524 7.63086,-5.34375 7.6289,-5.34375 v -8.03515 -8.03321 l -8.02929,-8.54687 -8.0293,-8.54688 -1.23633,-21.40234 -1.23437,-21.40039 -2.09571,-2.0957 -2.0957,-2.09571 -10.75781,10.30664 -10.75586,10.30469 -9.47852,-2.37891 -9.47851,-2.3789 -13.47266,-12.70703 -13.47265,-12.70703 -13.70508,-2.57227 z m 49.18164,106.60547 h 14.06055 14.05859 l -1.57227,1.35742 -1.57226,1.35547 -10.14649,2.43164 -10.14648,2.43164 -2.33984,-3.78711 z m -41.06445,26.41601 h 5.66015 5.66016 v 5.25781 5.25586 l -5.66016,2.17188 -5.66015,2.17187 v -7.42773 z m 567.75976,0.0371 -11.63281,3.33594 -11.63281,3.33789 -9.97852,-1.9082 -9.97851,-1.90821 v 3.96875 3.96875 l 3.94336,10.62305 3.94531,10.62305 6.21093,4.71679 6.21094,4.7168 3.9961,-0.0156 v 0.002 l 3.99609,-0.0137 12.39063,-7.55664 12.39257,-7.55469 2.28321,-5.95313 2.28515,-5.95312 -7.21484,-7.21485 z m -530.02344,55.31055 2.51563,2.51562 2.51562,2.51563 -2.51562,2.51562 -2.51563,2.51563 v -5.03125 z"
       transform="matrix(0.26458333,0,0,0.26458333,-162.10218,-24.155352)" />
    <path
       id="path110"
       style="fill:#b5e790;fill-opacity:1;stroke:#ffffff;stroke-width:3.99999;stroke-miterlimit:4;stroke-dasharray:none;stroke-opacity:1"
       d="m 1755.5859,333.45117 -2.3847,2.39453 -2.3848,2.39649 8.8828,7.20117 8.8848,7.20312 3.3808,-2.08984 3.3809,-2.08984 v -5.02735 -5.02929 l -9.8809,-2.48047 z"
       transform="matrix(0.26458333,0,0,0.26458333,-162.10218,-24.155352)" />
    <path
       id="path108"
       style="fill:#b5e790;fill-opacity:1;stroke:#ffffff;stroke-width:3.99999;stroke-miterlimit:4;stroke-dasharray:none;stroke-opacity:1"
       d="m 1707.8262,318.45703 -4.2442,7.93359 -4.2461,7.9336 5.9512,9.08203 5.9512,9.08203 12.2402,-2.31836 12.2422,-2.32031 6.6055,-3.375 6.6035,-3.375 v -5.39453 -5.39453 l -6.6035,-3.41016 -6.6055,-3.41016 -13.9473,-2.51562 z"
       transform="matrix(0.26458333,0,0,0.26458333,-162.10218,-24.155352)" />
    <path
       id="path106"
       style="fill:#b5e790;fill-opacity:1;stroke:#ffffff;stroke-width:3.99999;stroke-miterlimit:4;stroke-dasharray:none;stroke-opacity:1"
       d="m 1329.3574,299.85547 -9.5937,7.54687 -9.5957,7.54688 h -6.7481 -6.75 l -11.6777,9.82617 -11.6758,9.82617 -12.8672,27.84961 -12.8691,27.85156 -2.5156,7.92774 -2.5176,7.92969 8.5625,9.11328 8.5605,9.11133 h 6.8184 6.8164 l -2.2168,-16.16797 -2.2149,-16.16797 8.5254,-18.13672 8.5254,-18.13867 11.9727,-11.91992 11.9746,-11.92188 12.9219,-7.60742 12.9218,-7.60547 1.2051,-8.43164 1.2071,-8.43164 h -4.3848 z"
       transform="matrix(0.26458333,0,0,0.26458333,-162.10218,-24.155352)" />
    <path
       id="path104"
       style="fill:#b5e790;fill-opacity:1;stroke:#ffffff;stroke-width:3.99999;stroke-miterlimit:4;stroke-dasharray:none;stroke-opacity:1"
       d="m 330.98633,288.13477 -12.06055,15.22656 -12.06055,15.22851 2.375,3.83985 2.37305,3.84179 h 7.34961 7.34961 l 8.20312,9.4336 8.20313,9.43359 h 4.57617 4.57617 l 2.17188,5.66016 2.17187,5.66211 h 7.03711 7.03711 l 2.82422,-2.83203 2.82422,-2.83008 13.8125,-3.88477 13.8125,-3.88672 1.26758,-6.58789 1.26953,-6.58789 -12.01563,-11.22461 -12.01562,-11.22461 h -3.37305 -3.375 v 9.25977 9.26172 l -12.92578,-8.31836 -12.92383,-8.31641 -1.22656,-9.43359 -1.22656,-9.43359 -8.01563,-1.14454 z"
       transform="matrix(0.26458333,0,0,0.26458333,-162.10218,-24.155352)" />
    <path
       id="path102"
       style="fill:#e29029;fill-opacity:1;stroke:#464646;stroke-width:6;stroke-miterlimit:4;stroke-dasharray:none;stroke-opacity:1"
       d="m 1191.6152,892.58594 -4.0976,-4.04102 -5.8047,-8.85937 -5.8047,-8.85743 -9.9434,-23.62695 -11.9648,-21.10156 -9.5059,-37.29883 -7.7461,0.0644 -16.1367,1.15039 -20.3125,-6.12695 -20.3125,-6.1289 -4.6328,6.33593 -4.6328,6.33399 h -5.3477 -5.3476 l -7.4434,-5.20703 -7.4433,-5.20704 -7.5196,-1.44335 -7.5175,-1.44141 -1.9375,-11.27539 -1.9356,-11.27539 -20.5488,-1.16602 -20.54884,-1.16797 -16.45313,6.28321 -17.43554,8.96289 -5.98047,-1.7461 -18.43164,8.14063 -11.88281,11.29492 v 4.88477 4.88281 l -10.92383,10.20508 -10.92578,10.20508 -7.92969,13.00781 -7.92969,13.00781 -0.0137,28.71484 -0.0137,28.71485 12.57226,15.88867 12.57227,15.88867 11.01367,7.26172 11.01172,7.26172 18.86719,-2.16016 18.86914,-2.16211 10.13476,-3.83398 10.13282,-3.83399 10.62109,5.72071 10.6211,5.72265 6.7597,2.12305 6.7617,2.125 -0.8906,15.07227 -0.8887,15.07421 8.75,9.31446 8.75,9.31445 2.8614,15.64652 2.8613,15.6465 -5.8691,14.9473 -5.8711,14.9453 8.1992,16.8789 8.1992,16.8769 v 8.42 8.4199 l 9.4355,17.7226 9.4336,17.7207 v 6.9668 6.9649 l 4.5547,4.5547 4.5547,4.5547 19.0313,-2.418 19.0312,-2.4199 6.7207,-3.4629 6.7227,-3.4649 11.2031,-15.4648 11.2031,-15.4649 v -6.8476 -6.8496 l 7.6524,-4.0957 7.6523,-4.0957 -0.9062,-13.4668 -0.9082,-13.4668 14.0097,-11.2383 14.0098,-11.2383 -0.092,-11.8984 -0.094,-11.8985 -3.7773,-16.3808 -3.7773,-16.38093 7.4062,-11.92187 7.4043,-11.92188 17.2539,-14.36523 17.252,-14.36719 7.5136,-14.72852 7.5157,-14.72851 v -5.94141 -5.9414 l -18.8692,2.5039 -18.8691,2.50196 -11.6153,-9.93946 z"
       transform="matrix(0.26458333,0,0,0.26458333,-162.10218,-24.155352)"
       sodipodi:nodetypes="cccccccccccccccccccccccccccccccccccccccccccccccccccccccccccccccccccccccccccccccccccccccccccccccc" />
    <path
       id="path100"
       style="fill:#b5e790;fill-opacity:1;stroke:#ffffff;stroke-width:3.99999;stroke-miterlimit:4;stroke-dasharray:none;stroke-opacity:1"
       d="m 365.88477,256.45898 -1.20508,8.49024 -1.20508,8.49023 h -3.51172 -3.51172 v 4.90625 4.90625 l 4.5293,4.52735 4.52734,4.52929 h 4.83399 4.83398 l 1.98242,-8.49218 1.98047,-8.49024 0.91992,-9.43359 0.92188,-9.4336 h -7.54688 z"
       transform="matrix(0.26458333,0,0,0.26458333,-162.10218,-24.155352)" />
    <path
       id="path98"
       style="fill:#b5e790;fill-opacity:1;stroke:#ffffff;stroke-width:3.99999;stroke-miterlimit:4;stroke-dasharray:none;stroke-opacity:1"
       d="m 408.64453,234.83203 -3.50195,3.50195 -3.50196,3.50196 2.32227,11.60351 2.32031,11.60547 11.15625,8.24805 11.15625,8.24805 5.66992,-4.70508 5.66993,-4.70508 9.64453,10.40039 9.64453,10.40039 3.64062,-3.64062 3.64258,-3.64063 -4.66992,-8.93555 -4.66992,-8.93554 -2.67578,-5.66016 -2.67578,-5.66016 -7.57227,-0.125 -7.57031,-0.12304 -14.01563,-10.68946 z"
       transform="matrix(0.26458333,0,0,0.26458333,-162.10218,-24.155352)" />
    <path
       id="path96"
       style="fill:#b5e790;fill-opacity:1;stroke:#ffffff;stroke-width:3.99999;stroke-miterlimit:4;stroke-dasharray:none;stroke-opacity:1"
       d="m 431.92383,215.57617 v 5.03321 5.03124 l 2.51562,-2.51562 2.51758,-2.51562 -2.51758,-2.51758 z"
       transform="matrix(0.26458333,0,0,0.26458333,-162.10218,-24.155352)" />
    <path
       id="path92"
       style="fill:#b5e790;fill-opacity:1;stroke:#ffffff;stroke-width:3.99999;stroke-miterlimit:4;stroke-dasharray:none;stroke-opacity:1"
       d="m 1243.2598,189.47656 -11.9883,2.39649 -11.9903,2.39843 -1.5624,1.5625 -1.5645,1.56446 2.4863,7.83203 2.4864,7.83008 h 4.166 4.164 l 6.9024,-6.24414 6.9004,-6.2461 v -5.54687 z"
       transform="matrix(0.26458333,0,0,0.26458333,-162.10218,-24.155352)" />
    <path
       id="path90"
       style="fill:#b5e790;fill-opacity:1;stroke:#ffffff;stroke-width:3.99999;stroke-miterlimit:4;stroke-dasharray:none;stroke-opacity:1"
       d="m 1480.3672,177.64844 -6.2871,3.94336 -6.2871,3.9414 -5.1778,19.10547 -5.1797,19.10742 15.2598,15.41211 15.2598,15.41407 h 7.8437 7.8438 v 9.43359 9.43359 h 7.7949 7.7949 l 7.2988,-3.90625 7.3008,-3.90625 v -6.17383 -6.17382 l -6.2461,-6.90235 -6.2461,-6.90039 h -6.9609 -6.9629 v -7.58398 -7.58399 l -7.5469,-6.46289 -7.5488,-6.46093 v -11.90821 -11.90625 l -5.9765,-4.96093 z"
       transform="matrix(0.26458333,0,0,0.26458333,-162.10218,-24.155352)" />
    <path
       id="path88"
       style="fill:#b5e790;fill-opacity:1;stroke:#ffffff;stroke-width:3.99999;stroke-miterlimit:4;stroke-dasharray:none;stroke-opacity:1"
       d="m 557.0332,100.27539 -4.52343,5.44922 -4.52149,5.44727 h -5.08594 -5.08398 l -8.37109,11.32226 -8.36915,11.32031 h -4.76171 -4.76172 l -17.17188,11.58789 -17.16992,11.58789 0.0195,2.56446 0.0176,2.5625 3.88281,13.97851 3.88281,13.98047 9.88086,7.77149 9.88086,7.77148 -1.74804,1.74805 -1.7461,1.74609 -8.50195,-5.95312 -8.50195,-5.95508 -3.47852,-9.15039 -3.47851,-9.15039 -5.89844,-2.26368 -5.89844,-2.26171 -5.29492,7.07617 -5.29297,7.07812 -3.62109,16.59961 -3.6211,16.60157 4.04102,8.87109 4.04297,8.87109 h 3.16797 3.16601 v 8.72266 8.72266 l 7.84375,8.41992 7.84375,8.41797 7.21875,-2.29102 7.2168,-2.28906 3.99023,2.46484 3.99024,2.4668 -4.28125,5.16015 -4.28125,5.15821 2.0957,3.39062 2.09375,3.39063 -8.93164,8.39258 -8.93359,8.39062 -12.13868,-6.27734 -12.14062,-6.27735 -3.83984,3.8418 -3.8418,3.83984 2.29101,5.97071 2.29102,5.9707 9.53125,3.625 9.53125,3.62305 v 6.1582 6.15625 l -5.9707,-2.28906 -5.96875,-2.29102 h -5.35157 -5.35156 v -9.21289 -9.21094 l -3.78515,-2.33789 -3.78516,-2.33984 -16.96875,2.54492 -16.9707,2.54492 v 4.53711 4.53711 l 13.73828,12.16406 13.73828,12.16211 6.07226,-0.99609 6.07422,-0.99609 5.66016,3.67773 5.66015,3.67969 11.32227,1.10937 11.32031,1.11133 27.8711,0.77735 27.87109,0.77539 4.18555,-6.60352 4.18554,-6.60352 -4.22851,-6.60351 -4.22656,-6.60352 h -22.07813 -22.07812 l -1.35352,-6.83008 -1.35352,-6.82812 26.43555,1.65625 26.4375,1.6543 4.07227,-4.07227 4.07226,-4.07226 v -10.96485 -10.96484 l 9.4336,-11.21094 9.43554,-11.21289 v -12.64453 -12.64258 l 8.83399,-6.95117 8.83398,-6.94922 4.87305,-9.36133 4.87109,-9.36328 12.70899,-15.72851 12.70898,-15.73047 v -7.85547 -7.85547 h 1.57813 1.57812 l 5.96875,-2.29102 3.4707,-5.32617 5.44922,-9.86719 1.75782,-9.19531 -7.06836,-7.9043 -7.07032,-7.90429 -15.09375,-6.4668 -15.09375,-6.4668 -19.52539,-2.26757 z"
       transform="matrix(0.26458333,0,0,0.26458333,-162.10218,-24.155352)" />
    <path
       style="fill:#b5e790;fill-opacity:1;stroke:#ffffff;stroke-width:3.99999;stroke-miterlimit:4;stroke-dasharray:none;stroke-opacity:1"
       d="m 1270.9512,171.55078 -4.9141,9.17969 -4.9121,9.17969 3.1172,6.85937 3.1152,6.85742 0.7246,3.77344 0.7227,3.77344 0.4355,2.83008 0.4356,2.83007 h 5.4375 5.4375 l 2.3379,-3.7832 2.3398,-3.7832 16.752,-7.63086 16.7519,-7.63281 v -5.73633 -5.73828 l -14.1504,2.51953 -14.1523,2.51758 -3.6836,0.48242 -3.6836,0.48437 -1.2949,-8.49218 -1.2969,-8.49024 h -4.7598 z"
       transform="matrix(0.26458333,0,0,0.26458333,-162.10218,-24.155352)"
       id="path978" />
    <path
       style="fill:#b5e790;fill-opacity:1;stroke:#ffffff;stroke-width:3.99999;stroke-miterlimit:4;stroke-dasharray:none;stroke-opacity:1"
       d="m 839.47852,145.13477 h 1.88671 1.88672 v 1.88671 1.88672 h -1.88672 -1.88671 v -1.88672 z"
       transform="matrix(0.26458333,0,0,0.26458333,-162.10218,-24.155352)"
       id="path976" />
    <path
       style="fill:#e29029;fill-opacity:1;stroke:#464646;stroke-width:6;stroke-miterlimit:4;stroke-dasharray:none;stroke-opacity:1"
       d="m 790.47656,76.359375 -12.84961,2.410156 -12.85156,2.41211 -9.46875,7.447265 -9.46875,7.449219 -5.06445,0.01367 -5.06446,0.01367 -12.42187,7.574225 -12.41992,7.57226 0.75195,4.67774 0.75,4.67773 -2.92773,6.71485 -2.92969,6.71679 -7.11914,-2.25976 -7.11914,-2.25977 -2.34571,6.11719 -2.34765,6.11523 -10.95117,-2.40625 -10.95313,-2.40625 -14.39062,7.50196 -14.51172,11.47461 -1.07032,7.68359 v 7.95117 l -15.0957,15.0957 -15.09375,15.09375 v 5.99805 6 l 7.77735,6.29883 7.77929,6.29883 -2.52148,6.57031 -2.52149,6.57031 h -2.72461 -2.72265 l -17.62696,11.67578 -17.6289,11.67774 v 4.7207 4.71875 l 7.59961,6.87891 7.60156,6.8789 -2.13477,6.72461 -2.13476,6.72657 6.18164,11.95117 6.17969,11.95312 17.68164,-2.3457 17.67969,-2.3457 8.38086,5.87109 8.3789,5.86914 4.30274,8.03906 4.30273,8.03907 5.02539,21.01367 5.02734,21.01172 0.13282,12.26562 0.13476,12.26367 h 3.54492 3.54493 l -0.71485,16.03907 -0.71484,16.0371 6.60351,-0.52343 6.60547,-0.52539 -0.12109,4.29882 -0.11914,4.29688 -5.54102,7.32617 -5.53906,7.32422 v 8.16016 8.1582 l 9.21875,25.41602 9.21875,25.41796 5.80469,8.85938 5.80664,8.86133 10.44726,5.47656 10.44727,5.47656 3.50391,-0.74414 0.004,-0.002 3.50391,-0.74414 2.83008,-5.43555 2.82812,-5.43555 6.875,-24.07812 6.875,-24.07813 12.47266,-5.30468 12.47265,-5.30664 7.5879,-12.85938 7.58789,-12.85937 13.90234,-4.55664 13.90234,-4.55665 8.70899,-5.66406 8.70703,-5.66406 6.86914,-13.57617 6.86914,-13.57422 -3.30664,-8.80273 -3.30664,-8.80274 2.50391,-10.06445 2.5039,-10.06641 7.16797,-12.81445 7.16797,-12.8125 0.19336,-13.97656 0.19336,-13.97852 -4.21094,-7.86719 -4.21094,-7.86718 v -2.13477 -2.13477 h 6.08008 6.08203 l -2.60156,-14.15234 -2.59961,-14.15039 -3.48047,-3.58594 -3.48047,-3.58398 v -8.73047 -8.73047 l 3.35156,-6.55273 3.35157,-6.55274 10.375,-20.75586 10.375,-20.7539 11.65429,-12.38086 11.6543,-12.37891 -3.93555,-6.23633 -3.93359,-6.23633 -6.33789,-3.99804 -6.33984,-3.99805 -7.50782,4.68945 -7.50976,4.68946 h -7.59766 -7.59961 v -5.19922 -5.19922 l -5.78515,-4.80078 -5.78711,-4.80274 7.77929,-8.28125 7.78125,-8.28125 -2.34375,-6.10351 -2.34179,-6.10352 -6.77735,-2.15039 -6.77539,-2.15039 -9.74609,-14.726566 -9.74609,-14.726562 -17.06641,-2.558594 z"
       transform="matrix(0.26458333,0,0,0.26458333,-162.10218,-24.155352)"
       id="path86" />
    <rect
       style="fill:none;fill-opacity:1;stroke:#000000;stroke-width:1.5875;stroke-miterlimit:4;stroke-dasharray:none"
       id="rect927-7"
       width="511.32291"
       height="511.32291"
       x="-161.76363"
       y="-23.816801"
       inkscape:export-xdpi="23.809999"
       inkscape:export-ydpi="23.809999" />
    <path
       style="fill:none;stroke:#000000;stroke-width:2.11667;stroke-linecap:butt;stroke-linejoin:miter;stroke-miterlimit:4;stroke-dasharray:4.23333, 2.11667;stroke-dashoffset:0;stroke-opacity:1"
       d="M -158.60982,228.33274 H 349.20901"
       id="path1739" />
  </g>
</svg>
